<svg width="373" height="160" viewBox="0 0 373 160" fill="none" xmlns="http://www.w3.org/2000/svg">
<path d="M373 160H3.79254e-05L1.68194e-05 96.7369C0 44.0177 67.8722 59.4324 91.5094 63.1883C138.134 70.597 213.853 75.1847 213.853 28.6812C213.853 -21.1624 354.599 -1.99182 373 55.0408V160Z" fill="url(#paint0_linear)"/>
<path d="M93.4596 122.922H82.9773C81.6671 122.922 80.5681 122.207 80.5681 121.332C80.5681 120.457 81.6671 119.742 82.9773 119.742H93.4596C94.7699 119.742 95.8688 120.457 95.8688 121.332C95.8688 122.207 94.7699 122.922 93.4596 122.922Z" fill="url(#paint1_linear)"/>
<path opacity="0.52" d="M93.4596 122.922H82.9773C81.6671 122.922 80.5681 122.207 80.5681 121.332C80.5681 120.457 81.6671 119.742 82.9773 119.742H93.4596C94.7699 119.742 95.8688 120.457 95.8688 121.332C95.8688 122.207 94.7699 122.922 93.4596 122.922Z" fill="url(#paint2_linear)"/>
<path d="M268.509 83.1299H263.057C262.042 83.1299 261.239 82.5733 261.239 81.9372C261.239 81.2613 262.042 80.7444 263.057 80.7444H268.509C269.524 80.7444 270.327 81.301 270.327 81.9372C270.327 82.6131 269.481 83.1299 268.509 83.1299Z" fill="url(#paint3_linear)"/>
<path opacity="0.52" d="M268.509 83.1299H263.057C262.042 83.1299 261.239 82.5733 261.239 81.9372C261.239 81.2613 262.042 80.7444 263.057 80.7444H268.509C269.524 80.7444 270.327 81.301 270.327 81.9372C270.327 82.6131 269.481 83.1299 268.509 83.1299Z" fill="url(#paint4_linear)"/>
<path d="M174.211 85.0304H158.926C156.975 85.0304 155.43 83.9598 155.43 82.7362C155.43 81.4361 156.975 80.4419 158.926 80.4419H174.211C176.162 80.4419 177.707 81.5126 177.707 82.7362C177.788 83.9598 176.162 85.0304 174.211 85.0304Z" fill="url(#paint5_linear)"/>
<path opacity="0.52" d="M174.453 85.2346H158.758C156.754 85.2346 155.168 84.1163 155.168 82.8382C155.168 81.4803 156.754 80.4419 158.758 80.4419H174.453C176.456 80.4419 178.042 81.5602 178.042 82.8382C178.126 84.1163 176.456 85.2346 174.453 85.2346Z" fill="url(#paint6_linear)"/>
<path d="M216.049 72.3631H207.892C206.877 72.3631 206.032 71.8065 206.032 71.1306C206.032 70.4547 206.877 69.8981 207.892 69.8981H216.049C217.064 69.8981 217.909 70.4547 217.909 71.1306C217.951 71.8065 217.106 72.3631 216.049 72.3631Z" fill="url(#paint7_linear)"/>
<path opacity="0.52" d="M215.913 72.7231H207.756C206.741 72.7231 205.896 72.1665 205.896 71.4906C205.896 70.8147 206.741 70.2581 207.756 70.2581H215.913C216.928 70.2581 217.773 70.8147 217.773 71.4906C217.815 72.1665 216.97 72.7231 215.913 72.7231Z" fill="url(#paint8_linear)"/>
<path d="M287.443 144.512C287.671 143.007 289.577 141.788 291.939 141.788C294.225 141.788 296.13 142.935 296.435 144.369H301.541C304.361 144.369 306.723 145.874 306.723 147.738C306.723 149.602 304.437 151.107 301.541 151.107H288.662C285.842 151.107 283.48 149.602 283.48 147.738C283.556 146.161 285.233 144.87 287.443 144.512Z" fill="url(#paint9_linear)"/>
<path opacity="0.52" d="M287.729 144.59C287.954 143.041 289.829 141.788 292.154 141.788C294.404 141.788 296.279 142.968 296.579 144.442H301.605C304.38 144.442 306.705 145.991 306.705 147.908C306.705 149.825 304.455 151.373 301.605 151.373H288.929C286.153 151.373 283.828 149.825 283.828 147.908C283.903 146.286 285.553 144.958 287.729 144.59Z" fill="url(#paint10_linear)"/>
<path d="M260.296 35.2638H251.926C251.926 32.2108 248.168 29.6398 243.47 29.6398C238.772 29.6398 235.014 32.1304 235.014 35.2638H232.622C228.864 35.2638 225.789 37.2724 225.789 39.7631C225.789 42.2538 228.864 44.2624 232.622 44.2624H260.382C264.14 44.2624 267.215 42.2538 267.215 39.7631C267.129 37.2724 264.054 35.2638 260.296 35.2638Z" fill="url(#paint11_linear)"/>
<path opacity="0.52" d="M260.754 35.1698H252.514C252.514 32.1678 248.814 29.6398 244.19 29.6398C239.565 29.6398 235.865 32.0888 235.865 35.1698H233.511C229.811 35.1698 226.784 37.1448 226.784 39.5938C226.784 42.0427 229.811 44.0177 233.511 44.0177H260.838C264.538 44.0177 267.565 42.0427 267.565 39.5938C267.481 37.1448 264.454 35.1698 260.754 35.1698Z" fill="url(#paint12_linear)"/>
<path d="M176.541 122.698H161.845V122.89H176.541V122.698Z" fill="#6BE2FF"/>
<path d="M299.774 89.0506H284.823V89.2426H299.774V89.0506Z" fill="#6BE2FF"/>
<path d="M359.68 133.463H337.993V133.655H359.68V133.463Z" fill="#6BE2FF"/>
<path d="M230.374 75.9514H208.687V76.1434H230.374V75.9514Z" fill="#6BE2FF"/>
<path d="M329.166 19.8353H307.837V20.0273H329.166V19.8353Z" fill="#6BE2FF"/>
<path opacity="0.5" d="M210.124 126.876C210.124 127.518 209.746 128.114 209.116 128.435L189.881 138.295C189.503 138.479 189.293 138.8 189.293 139.167C189.293 139.533 189.503 139.855 189.839 140.038L204.79 147.743H203.111L189.419 140.726C188.789 140.405 188.411 139.809 188.411 139.167C188.411 138.525 188.789 137.928 189.419 137.607L208.654 127.747C209.032 127.564 209.242 127.243 209.242 126.876C209.242 126.509 209.032 126.188 208.654 126.005L177.827 110.229C177.197 109.908 176.819 109.357 176.819 108.669C176.819 108.027 177.197 107.431 177.827 107.11L186.731 102.478C187.067 102.295 187.319 101.974 187.319 101.607C187.319 101.24 187.109 100.919 186.773 100.735L179.129 96.608C178.205 96.1035 177.029 96.1035 176.106 96.608L160.272 104.955C158.844 105.688 157.122 105.688 155.694 104.955L129.949 91.5175C129.067 91.0588 127.975 91.0588 127.093 91.5175L119.24 95.5532C118.904 95.7366 118.652 96.0577 118.652 96.4245C118.652 96.7914 118.862 97.1125 119.24 97.2959L138.223 107.064C138.853 107.385 139.231 107.936 139.231 108.623C139.231 109.266 138.853 109.862 138.223 110.183L119.282 120.043C118.946 120.226 118.736 120.547 118.736 120.914C118.736 121.281 118.946 121.602 119.282 121.785L132.217 128.573C132.847 128.894 133.225 129.49 133.183 130.132C133.183 130.774 132.805 131.37 132.175 131.691L118.988 138.479C117.518 139.258 115.67 139.258 114.2 138.525L112.268 137.561C111.344 137.103 110.168 137.103 109.202 137.561L89.2527 147.834H87.5308L108.782 136.874C109.958 136.277 111.47 136.232 112.688 136.874L114.62 137.837C115.838 138.433 117.35 138.433 118.568 137.837L131.755 131.049C132.091 130.866 132.343 130.545 132.343 130.178C132.343 129.811 132.133 129.49 131.797 129.307L118.862 122.519C118.232 122.198 117.896 121.602 117.896 120.96C117.896 120.318 118.274 119.768 118.904 119.401L137.845 109.541C138.181 109.357 138.433 109.036 138.433 108.669C138.433 108.302 138.223 107.981 137.845 107.798L118.862 98.0297C118.232 97.7086 117.854 97.1124 117.854 96.4704C117.854 95.8284 118.232 95.2322 118.862 94.9111L126.715 90.8754C127.849 90.2792 129.277 90.2792 130.411 90.8754L156.156 104.358C157.29 104.955 158.718 104.955 159.894 104.358L175.728 96.0118C176.945 95.3697 178.415 95.4156 179.591 96.0118L187.235 100.139C187.865 100.46 188.201 101.056 188.201 101.699C188.201 102.341 187.823 102.891 187.193 103.212L178.289 107.844C177.911 108.027 177.701 108.348 177.701 108.715C177.701 109.082 177.911 109.403 178.289 109.587L209.116 125.363C209.746 125.638 210.124 126.234 210.124 126.876Z" fill="#59CEF8"/>
<path d="M181.734 100.093C181.734 98.6259 180.39 97.3877 178.71 97.4335C177.072 97.4335 175.728 98.7635 175.77 100.231C175.854 101.561 176.946 102.616 178.374 102.753V105.046C178.374 105.23 178.542 105.367 178.71 105.367C178.92 105.367 179.046 105.23 179.046 105.046V102.753C180.558 102.57 181.734 101.423 181.734 100.093Z" fill="url(#paint13_linear)"/>
<path d="M187.655 97.2501C187.655 95.7826 186.311 94.5443 184.632 94.5902C182.994 94.5902 181.65 95.9202 181.692 97.3877C181.776 98.7176 182.868 99.7724 184.296 99.91V102.203C184.296 102.386 184.464 102.524 184.632 102.524C184.842 102.524 184.968 102.386 184.968 102.203V99.91C186.521 99.7266 187.655 98.6259 187.655 97.2501Z" fill="url(#paint14_linear)"/>
<path d="M195.887 109.495C195.887 108.027 194.543 106.789 192.863 106.835C191.225 106.835 189.881 108.165 189.923 109.632C190.007 110.962 191.099 112.017 192.527 112.155V114.448C192.527 114.631 192.695 114.769 192.863 114.769C193.073 114.769 193.199 114.631 193.199 114.448V112.155C194.753 111.971 195.887 110.871 195.887 109.495Z" fill="url(#paint15_linear)"/>
<path d="M199.331 134.443C199.331 132.975 197.987 131.737 196.307 131.783C194.669 131.783 193.325 133.113 193.367 134.581C193.451 135.911 194.543 136.965 195.971 137.103V139.396C195.971 139.579 196.139 139.717 196.307 139.717C196.517 139.717 196.643 139.579 196.643 139.396V137.103C198.197 136.965 199.331 135.819 199.331 134.443Z" fill="url(#paint16_linear)"/>
<path d="M168.882 134.443C168.882 132.975 167.538 131.737 165.858 131.783C164.22 131.783 162.876 133.113 162.918 134.581C163.002 135.911 164.094 136.965 165.522 137.103V139.396C165.522 139.579 165.69 139.717 165.858 139.717C166.068 139.717 166.194 139.579 166.194 139.396V137.103C167.706 136.965 168.882 135.819 168.882 134.443Z" fill="url(#paint17_linear)"/>
<path d="M111.217 116.466C109.58 116.466 108.236 117.796 108.278 119.263C108.362 120.593 109.454 121.648 110.881 121.785V124.079C110.881 124.262 111.049 124.4 111.217 124.4C111.427 124.4 111.553 124.262 111.553 124.079V121.785C113.023 121.648 114.157 120.501 114.157 119.126C114.241 117.658 112.855 116.42 111.217 116.466Z" fill="url(#paint18_linear)"/>
<path d="M120.248 107.89C118.61 107.89 117.266 109.22 117.308 110.687C117.392 112.017 118.484 113.072 119.912 113.21V115.503C119.912 115.686 120.08 115.824 120.248 115.824C120.458 115.824 120.584 115.686 120.584 115.503V113.21C122.054 113.072 123.188 111.925 123.188 110.55C123.272 109.082 121.928 107.89 120.248 107.89Z" fill="url(#paint19_linear)"/>
<path d="M124.868 122.565C123.23 122.565 121.886 123.895 121.928 125.363C122.012 126.693 123.104 127.747 124.532 127.885V130.178C124.532 130.361 124.7 130.499 124.868 130.499C125.078 130.499 125.204 130.361 125.204 130.178V127.885C126.674 127.747 127.808 126.601 127.808 125.225C127.85 123.757 126.506 122.519 124.868 122.565Z" fill="url(#paint20_linear)"/>
<path d="M174.636 92.7098V120.364C174.636 121.373 174.048 122.29 173.082 122.794L163.969 127.472C162.541 128.206 160.777 128.206 159.349 127.472L150.235 122.794C149.269 122.29 148.681 121.373 148.681 120.364V92.5264L158.047 98.2131C160.231 99.5431 163.129 99.5431 165.313 98.2131L174.636 92.7098Z" fill="url(#paint21_linear)"/>
<path d="M173.082 98.259L163.969 102.937C162.541 103.671 160.777 103.671 159.349 102.937L150.235 98.259C149.269 97.7545 148.681 96.8373 148.681 95.8284V96.5163C148.681 97.5252 149.269 98.4424 150.235 98.9469L159.349 103.625C160.777 104.358 162.541 104.358 163.969 103.625L173.082 98.9469C174.048 98.4424 174.636 97.5252 174.636 96.5163V95.8284C174.636 96.8373 174.048 97.7545 173.082 98.259Z" fill="#31097F"/>
<path d="M149.859 90.692L159.35 85.7849C160.778 85.0511 162.584 85.0511 164.012 85.7849L173.504 90.692C175.058 91.5175 175.058 93.4895 173.504 94.315L163.97 99.2221C162.542 99.9559 160.736 99.9559 159.308 99.2221L149.817 94.315C148.305 93.5354 148.305 91.5175 149.859 90.692Z" fill="#7362F4"/>
<path d="M161.659 98.6259C161.029 98.6259 160.399 98.4883 159.853 98.1673L151.076 93.6271C150.614 93.3978 150.32 92.9392 150.32 92.4806C150.32 92.022 150.614 91.5634 151.076 91.3341L159.853 86.7939C160.945 86.2435 162.373 86.2435 163.465 86.7939L172.243 91.3341C172.705 91.5634 172.999 92.022 172.999 92.4806C172.999 92.9392 172.705 93.3978 172.243 93.6271L163.465 98.1673C162.919 98.4883 162.289 98.6259 161.659 98.6259ZM161.659 86.5646C161.071 86.5646 160.483 86.7021 159.937 86.9773L151.16 91.5175C150.782 91.701 150.53 92.0678 150.53 92.4806C150.53 92.8933 150.782 93.2602 151.16 93.4437L159.937 97.9839C160.987 98.5342 162.331 98.5342 163.339 97.9839L172.117 93.4437C172.495 93.2602 172.747 92.8933 172.747 92.4806C172.747 92.0678 172.495 91.701 172.117 91.5175L163.339 86.9773C162.835 86.7021 162.247 86.5646 161.659 86.5646Z" fill="#59CEF8"/>
<path d="M157.208 105.78L152.462 103.35C152.042 103.12 151.538 103.258 151.37 103.625C151.202 103.992 151.454 104.496 151.874 104.725L156.62 107.156C157.04 107.385 157.544 107.248 157.712 106.881C157.88 106.468 157.67 106.009 157.208 105.78Z" fill="#59CEF8"/>
<path d="M157.208 109.357L152.462 106.927C152.042 106.697 151.538 106.835 151.37 107.202C151.202 107.569 151.454 108.073 151.874 108.303L156.62 110.733C157.04 110.962 157.544 110.825 157.712 110.458C157.88 110.045 157.67 109.587 157.208 109.357Z" fill="#59CEF8"/>
<path d="M157.208 112.934L152.462 110.504C152.042 110.274 151.538 110.412 151.37 110.779C151.202 111.146 151.454 111.65 151.874 111.88L156.62 114.31C157.04 114.539 157.544 114.402 157.712 114.035C157.88 113.622 157.67 113.164 157.208 112.934Z" fill="#59CEF8"/>
<path d="M157.208 116.512L152.462 114.081C152.042 113.852 151.538 113.989 151.37 114.356C151.202 114.723 151.454 115.227 151.874 115.457L156.62 117.887C157.04 118.117 157.544 117.979 157.712 117.612C157.88 117.245 157.67 116.741 157.208 116.512Z" fill="#59CEF8"/>
<path d="M157.208 120.089L152.462 117.658C152.042 117.429 151.538 117.566 151.37 117.933C151.202 118.3 151.454 118.805 151.874 119.034L156.62 121.464C157.04 121.694 157.544 121.556 157.712 121.189C157.88 120.822 157.67 120.318 157.208 120.089Z" fill="#59CEF8"/>
<path d="M166.363 105.78L171.109 103.35C171.529 103.12 172.033 103.258 172.201 103.625C172.369 103.992 172.117 104.496 171.697 104.725L166.951 107.156C166.531 107.385 166.027 107.248 165.859 106.881C165.733 106.468 165.943 106.009 166.363 105.78Z" fill="#31097F"/>
<path d="M166.363 109.357L171.109 106.927C171.529 106.697 172.033 106.835 172.201 107.202C172.369 107.569 172.117 108.073 171.697 108.303L166.951 110.733C166.531 110.962 166.027 110.825 165.859 110.458C165.733 110.045 165.943 109.587 166.363 109.357Z" fill="#31097F"/>
<path d="M166.363 112.934L171.109 110.504C171.529 110.274 172.033 110.412 172.201 110.779C172.369 111.146 172.117 111.65 171.697 111.88L166.951 114.31C166.531 114.539 166.027 114.402 165.859 114.035C165.733 113.622 165.943 113.164 166.363 112.934Z" fill="#31097F"/>
<path d="M166.363 116.512L171.109 114.081C171.529 113.852 172.033 113.989 172.201 114.356C172.369 114.723 172.117 115.227 171.697 115.457L166.951 117.887C166.531 118.117 166.027 117.979 165.859 117.612C165.733 117.245 165.943 116.741 166.363 116.512Z" fill="#31097F"/>
<path d="M166.363 120.089L171.109 117.658C171.529 117.429 172.033 117.566 172.201 117.933C172.369 118.3 172.117 118.805 171.697 119.034L166.951 121.464C166.531 121.694 166.027 121.556 165.859 121.189C165.733 120.822 165.943 120.318 166.363 120.089Z" fill="#31097F"/>
<path d="M189.378 114.723V131.095C189.378 131.829 188.958 132.517 188.244 132.884L181.524 136.323C180.474 136.874 179.172 136.874 178.122 136.323L171.402 132.884C170.688 132.517 170.268 131.829 170.268 131.095V114.631L177.156 118.805C178.752 119.814 180.894 119.814 182.532 118.805L189.378 114.723Z" fill="url(#paint22_linear)"/>
<path d="M171.108 113.255L178.122 109.632C179.172 109.082 180.474 109.082 181.566 109.632L188.579 113.255C189.713 113.852 189.713 115.319 188.579 115.915L181.566 119.538C180.516 120.089 179.214 120.089 178.122 119.538L171.108 115.915C169.974 115.319 169.974 113.806 171.108 113.255Z" fill="#7362F4"/>
<path d="M179.803 118.942C179.383 118.942 178.921 118.851 178.543 118.621L172.075 115.273C171.655 115.044 171.613 114.723 171.613 114.586C171.613 114.448 171.655 114.081 172.075 113.898L178.543 110.55C179.299 110.137 180.264 110.137 181.02 110.55L187.488 113.898C187.908 114.127 187.95 114.448 187.95 114.586C187.95 114.723 187.908 115.09 187.488 115.273L181.02 118.621C180.684 118.805 180.264 118.942 179.803 118.942ZM179.803 110.412C179.425 110.412 179.005 110.504 178.669 110.687L172.201 114.035C171.907 114.219 171.865 114.448 171.865 114.586C171.865 114.723 171.907 114.952 172.201 115.136L178.669 118.484C179.341 118.851 180.264 118.851 180.936 118.484L187.404 115.136C187.698 114.952 187.74 114.723 187.74 114.586C187.74 114.448 187.698 114.219 187.404 114.035L180.936 110.687C180.6 110.504 180.222 110.412 179.803 110.412Z" fill="url(#paint23_linear)"/>
<path opacity="0.52" d="M179.803 118.942C179.383 118.942 178.921 118.851 178.543 118.621L172.075 115.273C171.655 115.044 171.613 114.723 171.613 114.586C171.613 114.448 171.655 114.081 172.075 113.898L178.543 110.55C179.299 110.137 180.264 110.137 181.02 110.55L187.488 113.898C187.908 114.127 187.95 114.448 187.95 114.586C187.95 114.723 187.908 115.09 187.488 115.273L181.02 118.621C180.684 118.805 180.264 118.942 179.803 118.942ZM179.803 110.412C179.425 110.412 179.005 110.504 178.669 110.687L172.201 114.035C171.907 114.219 171.865 114.448 171.865 114.586C171.865 114.723 171.907 114.952 172.201 115.136L178.669 118.484C179.341 118.851 180.264 118.851 180.936 118.484L187.404 115.136C187.698 114.952 187.74 114.723 187.74 114.586C187.74 114.448 187.698 114.219 187.404 114.035L180.936 110.687C180.6 110.504 180.222 110.412 179.803 110.412Z" fill="url(#paint24_linear)"/>
<path d="M185.136 120.823C184.968 120.456 184.506 120.318 184.044 120.547L181.314 121.969C180.39 122.474 179.214 122.474 178.29 121.969L175.561 120.547C175.141 120.318 174.637 120.456 174.469 120.823C174.301 121.189 174.553 121.694 174.973 121.923L178.29 123.62C179.214 124.125 180.39 124.125 181.314 123.62L184.632 121.923C185.094 121.694 185.304 121.189 185.136 120.823Z" fill="#31097F"/>
<path d="M185.136 124.124C184.968 123.758 184.506 123.62 184.044 123.849L181.314 125.271C180.39 125.775 179.214 125.775 178.29 125.271L175.56 123.849C175.14 123.62 174.636 123.758 174.468 124.124C174.3 124.491 174.552 124.996 174.972 125.225L178.29 126.922C179.214 127.426 180.39 127.426 181.314 126.922L184.632 125.225C185.094 124.95 185.304 124.491 185.136 124.124Z" fill="#31097F"/>
<path d="M185.136 127.426C184.968 127.06 184.506 126.922 184.044 127.151L181.314 128.573C180.39 129.077 179.214 129.077 178.29 128.573L175.56 127.151C175.14 126.922 174.636 127.06 174.468 127.426C174.3 127.793 174.552 128.298 174.972 128.527L178.29 130.224C179.214 130.728 180.39 130.728 181.314 130.224L184.632 128.527C185.094 128.252 185.304 127.793 185.136 127.426Z" fill="#31097F"/>
<path d="M185.136 130.683C184.968 130.316 184.506 130.178 184.044 130.407L181.314 131.829C180.39 132.333 179.214 132.333 178.29 131.829L175.56 130.407C175.14 130.178 174.636 130.316 174.468 130.683C174.3 131.049 174.552 131.554 174.972 131.783L178.29 133.48C179.214 133.984 180.39 133.984 181.314 133.48L184.632 131.783C185.094 131.554 185.304 131.049 185.136 130.683Z" fill="#31097F"/>
<path d="M214.408 116.97C214.408 115.503 213.064 114.264 211.384 114.31C209.746 114.31 208.402 115.64 208.444 117.108C208.528 118.438 209.62 119.492 211.048 119.63V121.923C211.048 122.107 211.216 122.244 211.384 122.244C211.594 122.244 211.72 122.107 211.72 121.923V119.63C213.232 119.447 214.408 118.346 214.408 116.97Z" fill="url(#paint25_linear)"/>
<path d="M145.152 89.6831V111.054C145.152 111.421 144.942 111.742 144.606 111.926L141.33 113.622C140.826 113.898 140.196 113.898 139.65 113.622L136.375 111.926C136.039 111.742 135.829 111.421 135.829 111.054V89.6373L139.188 91.701C139.986 92.2055 141.036 92.2055 141.792 91.701L145.152 89.6831Z" fill="url(#paint26_linear)"/>
<path d="M136.208 88.9951L139.652 87.2066C140.156 86.9314 140.828 86.9314 141.332 87.2066L144.776 88.9951C145.321 89.2703 145.321 90.0041 144.776 90.2792L141.332 92.0678C140.828 92.3429 140.156 92.3429 139.652 92.0678L136.208 90.2792C135.662 90.0041 135.662 89.2703 136.208 88.9951Z" fill="#59CEF8"/>
<path d="M140.49 91.9761C140.238 91.9761 140.028 91.9302 139.818 91.7926L136.374 90.0041C136.122 89.8665 136.122 89.683 136.122 89.5913C136.122 89.4996 136.164 89.3161 136.374 89.1786L139.818 87.39C140.238 87.1607 140.784 87.1607 141.162 87.39L144.606 89.1786C144.858 89.3161 144.858 89.4996 144.858 89.5913C144.858 89.683 144.816 89.8665 144.606 90.0041L141.162 91.7926C140.952 91.9302 140.742 91.9761 140.49 91.9761ZM140.49 87.4817C140.28 87.4817 140.112 87.5276 139.902 87.6193L136.458 89.4079C136.332 89.4537 136.29 89.5913 136.29 89.6372C136.29 89.683 136.332 89.8206 136.458 89.8665L139.902 91.655C140.238 91.8385 140.7 91.8385 141.036 91.655L144.48 89.8665C144.606 89.8206 144.648 89.683 144.648 89.6372C144.648 89.5913 144.606 89.4537 144.48 89.4079L141.036 87.6193C140.868 87.5276 140.7 87.4817 140.49 87.4817Z" fill="#7362F4"/>
<path d="M138.138 102.065C138.097 102.065 138.013 102.02 138.013 101.974V92.7557C138.013 92.7099 138.055 92.664 138.138 92.664C138.221 92.664 138.263 92.7099 138.263 92.7557V101.974C138.263 102.02 138.221 102.065 138.138 102.065Z" fill="#59CEF8"/>
<path d="M139.356 96.1952C139.315 96.1952 139.231 96.1494 139.231 96.1035V93.3519C139.231 93.306 139.273 93.2602 139.356 93.2602C139.44 93.2602 139.481 93.306 139.481 93.3519V96.1035C139.481 96.1494 139.44 96.1952 139.356 96.1952Z" fill="#59CEF8"/>
<path d="M137.34 98.3507C137.299 98.3507 137.215 98.3049 137.215 98.259V92.0678C137.215 92.022 137.257 91.9761 137.34 91.9761C137.382 91.9761 137.465 92.022 137.465 92.0678V98.259C137.465 98.3049 137.424 98.3507 137.34 98.3507Z" fill="#59CEF8"/>
<path d="M149.897 106.835V123.207C149.897 123.941 149.477 124.629 148.763 124.996L142.043 128.435C140.993 128.986 139.691 128.986 138.641 128.435L131.921 124.996C131.207 124.629 130.787 123.941 130.787 123.207V106.743L137.675 110.917C139.271 111.925 141.413 111.925 143.051 110.917L149.897 106.835Z" fill="url(#paint27_linear)"/>
<path d="M131.629 105.413L138.643 101.79C139.693 101.24 140.995 101.24 142.087 101.79L149.1 105.413C150.234 106.009 150.234 107.477 149.1 108.073L142.087 111.696C141.037 112.246 139.735 112.246 138.643 111.696L131.629 108.073C130.453 107.477 130.453 106.009 131.629 105.413Z" fill="#7362F4"/>
<path d="M140.323 110.962C139.903 110.962 139.483 110.871 139.105 110.687L132.805 107.431C132.427 107.248 132.385 106.881 132.385 106.743C132.385 106.606 132.427 106.239 132.805 106.055L139.105 102.799C139.861 102.432 140.785 102.432 141.541 102.799L147.841 106.055C148.219 106.239 148.261 106.606 148.261 106.743C148.261 106.881 148.219 107.202 147.841 107.431L141.541 110.687C141.163 110.871 140.743 110.962 140.323 110.962ZM140.323 102.662C139.945 102.662 139.567 102.753 139.231 102.937L132.931 106.193C132.637 106.33 132.595 106.606 132.595 106.697C132.595 106.789 132.637 107.064 132.931 107.202L139.231 110.458C139.903 110.825 140.785 110.825 141.457 110.458L147.757 107.202C148.051 107.064 148.093 106.789 148.093 106.697C148.093 106.606 148.051 106.33 147.757 106.193L141.457 102.937C141.079 102.799 140.701 102.662 140.323 102.662Z" fill="url(#paint28_linear)"/>
<path opacity="0.52" d="M140.323 110.962C139.903 110.962 139.483 110.871 139.105 110.687L132.805 107.431C132.427 107.248 132.385 106.881 132.385 106.743C132.385 106.606 132.427 106.239 132.805 106.055L139.105 102.799C139.861 102.432 140.785 102.432 141.541 102.799L147.841 106.055C148.219 106.239 148.261 106.606 148.261 106.743C148.261 106.881 148.219 107.202 147.841 107.431L141.541 110.687C141.163 110.871 140.743 110.962 140.323 110.962ZM140.323 102.662C139.945 102.662 139.567 102.753 139.231 102.937L132.931 106.193C132.637 106.33 132.595 106.606 132.595 106.697C132.595 106.789 132.637 107.064 132.931 107.202L139.231 110.458C139.903 110.825 140.785 110.825 141.457 110.458L147.757 107.202C148.051 107.064 148.093 106.789 148.093 106.697C148.093 106.606 148.051 106.33 147.757 106.193L141.457 102.937C141.079 102.799 140.701 102.662 140.323 102.662Z" fill="url(#paint29_linear)"/>
<path d="M137.425 113.943L132.89 111.559C132.554 111.375 132.176 111.467 132.05 111.788C131.924 112.063 132.092 112.476 132.428 112.659L136.963 115.044C137.299 115.227 137.677 115.136 137.803 114.815C137.971 114.494 137.761 114.127 137.425 113.943Z" fill="#59CEF8"/>
<path d="M137.425 116.695L132.889 114.31C132.553 114.127 132.175 114.218 132.049 114.539C131.923 114.815 132.091 115.227 132.427 115.411L136.963 117.796C137.299 117.979 137.677 117.887 137.803 117.566C137.971 117.245 137.761 116.878 137.425 116.695Z" fill="#59CEF8"/>
<path d="M137.425 119.447L132.889 117.108C132.553 116.924 132.175 117.016 132.049 117.337C131.923 117.612 132.091 118.025 132.427 118.208L136.963 120.593C137.299 120.777 137.677 120.685 137.803 120.364C137.971 120.043 137.761 119.63 137.425 119.447Z" fill="#59CEF8"/>
<path d="M137.425 122.244L132.889 119.859C132.553 119.676 132.175 119.768 132.049 120.089C131.923 120.364 132.091 120.777 132.427 120.96L136.963 123.345C137.299 123.528 137.677 123.436 137.803 123.115C137.971 122.794 137.761 122.428 137.425 122.244Z" fill="#59CEF8"/>
<path d="M160.44 126.83V133.113C160.44 133.847 160.02 134.535 159.306 134.902L152.586 138.341C151.536 138.892 150.234 138.892 149.185 138.341L142.465 134.902C141.751 134.535 141.331 133.847 141.331 133.113V126.738L148.219 130.912C149.815 131.921 151.956 131.921 153.594 130.912L160.44 126.83Z" fill="url(#paint30_linear)"/>
<path d="M142.171 125.363L149.185 121.74C150.235 121.189 151.537 121.189 152.629 121.74L159.642 125.363C160.776 125.959 160.776 127.426 159.642 128.023L152.629 131.646C151.579 132.196 150.277 132.196 149.185 131.646L142.171 128.023C141.037 127.426 141.037 125.959 142.171 125.363Z" fill="#7362F4"/>
<path d="M150.865 131.049C150.445 131.049 149.983 130.958 149.605 130.728L143.137 127.381C142.717 127.151 142.675 126.83 142.675 126.693C142.675 126.555 142.717 126.188 143.137 126.005L149.605 122.657C150.361 122.244 151.327 122.244 152.082 122.657L158.55 126.005C158.97 126.234 159.012 126.555 159.012 126.693C159.012 126.83 158.97 127.197 158.55 127.381L152.082 130.728C151.746 130.958 151.326 131.049 150.865 131.049ZM150.865 122.565C150.487 122.565 150.067 122.657 149.731 122.84L143.263 126.188C142.969 126.372 142.927 126.601 142.927 126.738C142.927 126.876 142.969 127.105 143.263 127.289L149.731 130.637C150.403 131.003 151.327 131.003 151.998 130.637L158.466 127.289C158.76 127.105 158.802 126.876 158.802 126.738C158.802 126.601 158.76 126.372 158.466 126.188L151.998 122.84C151.662 122.657 151.284 122.565 150.865 122.565Z" fill="#59CEF8"/>
<path d="M153.888 133.159C153.804 132.93 153.51 132.884 153.258 133.021L151.662 133.847C151.116 134.122 150.444 134.122 149.856 133.847L148.26 133.021C148.008 132.884 147.714 132.976 147.63 133.159C147.546 133.388 147.672 133.663 147.924 133.801L149.856 134.81C150.402 135.085 151.074 135.085 151.662 134.81L153.594 133.801C153.846 133.663 153.972 133.388 153.888 133.159Z" fill="#31097F"/>
<path d="M153.888 135.36C153.804 135.131 153.51 135.085 153.258 135.223L151.662 136.048C151.116 136.323 150.444 136.323 149.856 136.048L148.26 135.223C148.008 135.085 147.714 135.177 147.63 135.36C147.546 135.59 147.672 135.865 147.924 136.002L149.856 137.011C150.402 137.286 151.074 137.286 151.662 137.011L153.594 136.002C153.846 135.865 153.972 135.59 153.888 135.36Z" fill="#31097F"/>
<path d="M146.203 131.829L143.305 130.316C143.053 130.178 142.759 130.27 142.675 130.453C142.591 130.682 142.717 130.958 142.969 131.095L145.867 132.609C146.119 132.746 146.413 132.654 146.497 132.471C146.581 132.288 146.455 131.921 146.203 131.829Z" fill="#59CEF8"/>
<path d="M146.203 134.122L143.305 132.609C143.053 132.471 142.759 132.563 142.675 132.746C142.591 132.976 142.717 133.251 142.969 133.388L145.867 134.902C146.119 135.039 146.413 134.948 146.497 134.764C146.581 134.535 146.455 134.26 146.203 134.122Z" fill="#59CEF8"/>
<path d="M239.398 104.021C239.35 104.007 239.35 104.007 239.303 103.993C238.955 103.947 238.56 103.888 238.181 103.776C237.471 103.567 236.81 103.203 236.23 102.75C235.649 102.296 235.212 101.715 234.949 101.073C234.795 100.745 234.656 100.365 234.612 100.013C234.629 99.9614 234.582 99.9474 234.598 99.8957C234.598 99.8957 235.552 98.0289 236.914 96.5082C238.306 95.0531 240.154 93.9581 240.171 93.9064C240.218 93.9203 240.218 93.9203 240.282 93.8825C240.582 93.9144 240.835 93.9324 241.119 94.016C241.893 94.1872 242.649 94.5792 243.308 95.1123C243.967 95.6453 244.419 96.3434 244.712 97.0513C244.788 97.2999 244.865 97.5485 244.925 97.8487C244.909 97.9004 244.909 97.9004 244.939 97.9661C244.939 97.9661 244.049 99.7951 242.64 101.302C241.326 102.837 239.414 103.969 239.398 104.021Z" fill="url(#paint31_linear)"/>
<path d="M240.202 93.9722C240.186 94.0239 234.646 99.9098 234.646 99.9098C234.6 99.7269 234.571 99.4923 234.573 99.3233C234.589 99.2716 234.542 99.2576 234.558 99.2059L234.574 99.1542C234.556 97.9055 234.997 96.6788 235.942 95.6571C236.886 94.6353 238.143 94.1008 239.426 93.97C239.426 93.97 239.474 93.9839 239.49 93.9322C239.537 93.9461 239.537 93.9461 239.601 93.9084C239.743 93.9502 239.996 93.9681 240.202 93.9722Z" fill="#9996FF"/>
<path d="M243.675 102.285C242.747 103.255 241.522 103.855 240.191 103.972C240.191 103.972 240.191 103.972 240.143 103.958C240.143 103.958 240.096 103.944 240.08 103.996C240.032 103.982 240.032 103.982 239.969 104.019C239.763 104.015 239.541 104.063 239.304 103.993C239.32 103.942 244.86 98.0557 244.86 98.0557C244.906 98.2387 244.935 98.4733 244.933 98.6423C244.933 98.6423 244.917 98.694 244.964 98.7079L244.948 98.7596C245.061 100.036 244.604 101.315 243.675 102.285Z" fill="#9996FF"/>
<path d="M243.457 93.0088L241.905 94.6428C241.584 95.0006 241.766 95.7324 242.378 96.2515C242.99 96.7706 243.733 96.8763 244.1 96.5324L245.653 94.8984L243.457 93.0088Z" fill="#3B1CAF"/>
<path d="M245.67 94.8466C245.99 94.4887 245.808 93.757 245.196 93.2378C244.584 92.7187 243.841 92.6131 243.474 92.9569C243.153 93.3148 243.335 94.0465 243.947 94.5657C244.559 95.0848 245.302 95.1904 245.67 94.8466Z" fill="#FF2B40"/>
<path d="M249.013 93.1178L246.115 96.2208C245.955 96.3997 245.763 96.513 245.494 96.5467C244.764 96.7274 243.722 96.4209 242.907 95.7287C242.013 94.9569 241.548 93.9725 241.73 93.2349C241.779 93.0798 241.845 92.8731 241.989 92.7458L244.887 89.6428L249.013 93.1178Z" fill="#6049E9"/>
<path d="M238.182 103.776C237.472 103.567 236.811 103.203 236.23 102.75C235.649 102.296 235.212 101.715 234.95 101.073L237.224 98.634C238.008 97.7911 239.37 97.7398 240.217 98.4976C240.343 98.5911 240.452 98.7363 240.53 98.8159C241.107 99.6074 241.08 100.673 240.392 101.375L238.182 103.776Z" fill="#3B1CAF"/>
<path d="M237.753 101.05C237.236 100.559 237.245 99.7139 237.773 99.1911C238.301 98.6683 239.188 98.6467 239.752 99.1519C240.269 99.6432 240.26 100.488 239.732 101.011C239.188 101.586 238.317 101.555 237.753 101.05Z" fill="#6049E9"/>
<path d="M237.975 100.833C237.584 100.435 237.575 99.8109 238.006 99.4293C238.438 99.0476 239.071 99.008 239.463 99.4058C239.854 99.8036 239.864 100.428 239.432 100.81C239.048 101.205 238.431 101.193 237.975 100.833Z" fill="#3B1CAF"/>
<path d="M238.265 100.579C238.03 100.341 238.002 99.9369 238.29 99.6825C238.53 99.4141 238.942 99.4222 239.224 99.6748C239.459 99.9135 239.486 100.317 239.199 100.572C238.975 100.788 238.5 100.818 238.265 100.579Z" fill="#6049E9"/>
<path d="M239 99.8914C238.875 99.7979 238.829 99.615 238.957 99.5395C239.084 99.4639 239.226 99.5057 239.352 99.5992C239.478 99.6927 239.523 99.8757 239.396 99.9512C239.268 100.027 239.11 100.037 239 99.8914Z" fill="white"/>
<path d="M234.861 70.981L235.424 70.1858C234.959 70.6708 234.151 70.772 233.618 70.3324C233.179 69.9207 233.075 69.2684 233.444 68.7555L232.769 69.7436C232.399 70.2565 232.503 70.9087 232.942 71.3204C233.539 71.7222 234.459 71.5972 234.861 70.981Z" fill="#6049E9"/>
<path d="M237.704 62.4927L233.395 68.741C233.089 69.2161 233.115 69.7888 233.459 70.1726L238.394 63.0914L237.704 62.4927Z" fill="#F4ECFB"/>
<path d="M235.246 70.416L239.395 64.3467L238.395 63.0917L233.46 70.1729C233.491 70.2385 233.538 70.2525 233.569 70.3181C234.102 70.7577 234.958 70.6704 235.246 70.416Z" fill="#D7B8EC"/>
<path d="M216.021 91.885L216.583 91.0898C216.119 91.5748 215.311 91.676 214.777 91.2364C214.338 90.8247 214.235 90.1724 214.604 89.6595L213.929 90.6476C213.559 91.1605 213.663 91.8127 214.102 92.2244C214.652 92.6123 215.571 92.4873 216.021 91.885Z" fill="#6049E9"/>
<path d="M218.863 83.3966L214.554 89.6448C214.248 90.1199 214.273 90.6926 214.618 91.0765L219.553 83.9953L218.863 83.3966Z" fill="#F4ECFB"/>
<path d="M216.582 91.0893L220.73 85.0199L219.538 84.0473L214.602 91.1285C214.633 91.1941 214.681 91.208 214.712 91.2736C215.309 91.6755 216.117 91.5743 216.582 91.0893Z" fill="#D7B8EC"/>
<path d="M250.032 120.601L250.798 119.979C250.334 120.464 250.342 121.258 250.875 121.697C251.314 122.109 252.042 122.097 252.537 121.678L251.627 122.427C251.148 122.795 250.42 122.807 249.965 122.446C249.384 121.993 249.409 121.096 250.032 120.601Z" fill="#6049E9"/>
<path d="M258.588 116.959L252.569 121.743C252.138 122.125 251.521 122.113 251.033 121.856L257.834 116.398L258.588 116.959Z" fill="#F4ECFB"/>
<path d="M250.8 119.979L256.675 115.322L257.867 116.295L251.065 121.753C251.018 121.739 250.987 121.674 250.893 121.646C250.343 121.258 250.319 120.516 250.8 119.979Z" fill="#D7B8EC"/>
<path d="M269.358 100.123L270.124 99.5006C269.66 99.9856 269.668 100.779 270.201 101.219C270.64 101.63 271.368 101.619 271.863 101.199L270.953 101.949C270.474 102.316 269.746 102.328 269.291 101.968C268.71 101.514 268.735 100.618 269.358 100.123Z" fill="#6049E9"/>
<path d="M277.913 96.4804L271.894 101.265C271.462 101.646 270.845 101.634 270.357 101.378L277.159 95.9195L277.913 96.4804Z" fill="#F4ECFB"/>
<path d="M270.124 99.5006L275.999 94.8435L277.192 95.8161L270.39 101.274C270.343 101.26 270.312 101.195 270.217 101.167C269.667 100.779 269.644 100.037 270.124 99.5006Z" fill="#D7B8EC"/>
<path d="M249.798 92.2748L246.899 95.3778C246.739 95.5567 246.548 95.67 246.279 95.7037C245.548 95.8845 244.507 95.578 243.691 94.8858C242.797 94.114 242.333 93.1296 242.515 92.392C242.564 92.2369 242.63 92.0301 242.773 91.9029L245.672 88.7999L249.798 92.2748Z" fill="#3B1CAF"/>
<path d="M280.903 93.7435C280.543 93.4113 279.956 93.4648 279.589 93.8087L279.428 93.9876C279.241 93.7629 279.037 93.5898 278.786 93.4028C276.794 91.6863 274.217 91.3236 273.065 92.5104C272.985 92.5998 272.968 92.6515 272.888 92.741L253.983 87.2336C252.232 86.7181 250.804 85.5067 250.077 83.88L242.533 67.0223C242.66 66.9467 242.804 66.8195 242.884 66.7301C244.053 65.4916 243.303 63.1233 241.294 61.4584C241.138 61.2993 240.918 61.1779 240.761 61.0188L240.921 60.8399C241.242 60.4821 241.216 59.9094 240.856 59.5773L237.913 59.3895C237.553 59.0573 236.966 59.1108 236.599 59.4547L235.59 60.5142C234.421 61.7526 235.172 64.121 237.18 65.7859C237.337 65.945 237.557 66.0664 237.73 66.1738C237.903 66.2812 238.043 66.492 238.072 66.7267L240.524 78.7511C241.11 81.6365 238.596 84.3439 235.464 84.1004L222.732 83.1223C222.479 83.1044 222.306 82.997 222.149 82.8378C221.993 82.6787 221.836 82.5196 221.68 82.3605C221.68 82.3605 221.68 82.3605 221.632 82.3466C221.953 81.9887 221.927 81.4161 221.567 81.0839L218.058 80.5599C217.698 80.2278 217.111 80.2813 216.743 80.6252L216.055 81.3269C215.992 81.3646 215.975 81.4163 215.911 81.4541C214.743 82.6925 215.493 85.0609 217.501 86.7258C219.493 88.4423 222.07 88.805 223.222 87.6182C223.366 87.491 223.415 87.3359 223.512 87.1948L241.455 92.3062C243.491 92.9053 245.122 94.2897 245.989 96.1272L253.82 112.9C253.756 112.937 253.676 113.027 253.612 113.065C252.443 114.303 253.193 116.671 255.202 118.336C257.163 119.987 259.628 120.374 260.795 119.304L261.884 118.155C262.204 117.797 262.179 117.225 261.818 116.893L261.184 113.993C260.824 113.661 260.238 113.715 259.87 114.059L259.71 114.237C259.584 114.144 259.475 113.999 259.302 113.891C259.051 113.704 258.816 113.466 258.501 113.317C258.28 113.195 258.14 112.984 258.095 112.801L255.528 101.139C254.847 98.2256 257.425 95.4804 260.557 95.7239L273.273 96.7536C273.526 96.7716 273.746 96.893 273.903 97.0521C274.138 97.2908 274.403 97.5951 274.702 97.796C276.616 99.433 279.065 99.8711 280.279 98.8157L281.304 97.7045C281.624 97.3466 281.599 96.774 281.238 96.4418L280.903 93.7435Z" fill="url(#paint32_linear)"/>
<path d="M260.483 112.939C260.106 112.659 259.776 112.392 259.383 112.163L258.058 96.9101C257.59 94.7943 259.146 92.8223 261.286 92.6042C261.714 92.5605 262.22 92.5965 262.646 92.7219L274.708 95.6503C275.005 96.0203 275.366 96.3524 275.726 96.6846C277.718 98.4011 280.295 98.7638 281.447 97.5771C282.616 96.3386 281.865 93.9702 279.857 92.3054C277.865 90.5888 275.289 90.2262 274.136 91.4129C274.056 91.5024 274.04 91.5541 273.96 91.6435L256.406 84.16C256.406 84.16 254.119 83.374 253.064 81.3117C251.018 77.3184 243.635 65.9904 243.635 65.9904C243.763 65.9149 243.907 65.7877 243.987 65.6982C245.156 64.4598 244.405 62.0914 242.397 60.4266C240.405 58.71 237.829 58.3474 236.676 59.5341C235.524 60.7208 236.258 63.1409 238.266 64.8058C238.548 65.0584 238.8 65.2453 239.115 65.3946L243.443 76.5586C243.582 76.9385 243.704 77.37 243.667 77.8114C243.598 79.8256 241.761 81.376 239.562 81.2938C235.542 81.2409 223.487 82.0447 223.487 82.0447C223.252 81.806 223.017 81.5673 222.735 81.3147C220.743 79.5982 218.166 79.2355 217.014 80.4223C215.845 81.6607 216.595 84.0291 218.604 85.6939C220.596 87.4105 223.172 87.7731 224.325 86.5864C224.468 86.4592 224.518 86.3041 224.614 86.163L244.413 89.5033C244.602 89.559 244.808 89.5631 244.997 89.6188C246.591 90.1442 247.861 91.1964 248.59 92.6541C248.699 92.7993 248.745 92.9823 248.79 93.1652C249.526 95.4163 254.969 111.882 254.969 111.882C254.906 111.919 254.826 112.009 254.762 112.047C253.593 113.285 254.343 115.653 256.352 117.318C258.344 119.035 260.92 119.398 262.072 118.211C263.178 117.01 262.475 114.656 260.483 112.939Z" fill="url(#paint33_linear)"/>
<path d="M257.994 117.689C257.601 117.46 257.16 117.217 256.799 116.885C255.701 115.94 254.986 114.769 254.902 113.727C254.858 113.375 254.911 112.882 255.279 112.538C255.295 112.486 255.359 112.448 255.423 112.411L255.774 112.118L249.473 92.9705C249.396 92.7219 249.303 92.525 249.242 92.3938C248.59 91.1846 247.619 90.1643 246.375 89.5157C246.013 89.3526 245.651 89.1894 245.288 89.0263C245.099 88.9705 244.862 88.9009 244.609 88.8829L224.321 85.4549L224.079 85.8923C224.046 85.9957 223.966 86.0852 223.886 86.1746C223.245 86.8902 221.757 86.848 220.341 86.092C219.947 85.8633 219.507 85.6206 219.146 85.2884C218.048 84.3436 217.333 83.1722 217.249 82.1303C217.205 81.7783 217.258 81.2852 217.626 80.9413C218.266 80.2257 219.754 80.2679 221.218 81.0378C221.611 81.2666 222.052 81.5093 222.412 81.8415C222.664 82.0285 222.851 82.2532 223.086 82.4919L223.321 82.7306L223.638 82.7108C223.749 82.6869 235.756 81.8693 239.666 81.946C242.293 81.9845 244.417 80.1797 244.443 77.8135C244.432 77.3582 244.374 76.8889 244.142 76.3122L239.721 64.9513L239.548 64.8439C239.296 64.6569 239.045 64.4699 238.794 64.2829C237.696 63.3381 236.98 62.1667 236.896 61.1248C236.853 60.7728 236.905 60.2797 237.273 59.9359C237.914 59.2202 239.402 59.2624 240.866 60.0324C241.259 60.2611 241.699 60.5038 242.06 60.836C243.158 61.7808 243.874 62.9522 243.957 63.9941C244.001 64.3461 243.948 64.8392 243.581 65.1831C243.5 65.2725 243.437 65.3103 243.309 65.3858L242.783 65.7396L243.126 66.2925C243.187 66.4237 250.491 77.6721 252.507 81.5998C253.235 83.0575 254.508 83.9407 255.437 84.4401C255.83 84.6688 256.114 84.7524 256.209 84.7803L274.267 92.4687L274.573 91.9936C274.59 91.9419 274.653 91.9041 274.67 91.8524C275.311 91.1368 276.798 91.179 278.262 91.9489C278.655 92.1777 279.096 92.4204 279.456 92.7526C280.554 93.6974 281.27 94.8688 281.354 95.9107C281.398 96.2627 281.345 96.7558 280.977 97.0997C280.336 97.8153 278.849 97.7731 277.385 97.0032C276.992 96.7744 276.551 96.5317 276.19 96.1995C275.861 95.933 275.548 95.6147 275.251 95.2448L275.111 95.034L262.811 92.0359C262.227 91.9204 261.673 91.8705 261.198 91.9002C259.962 92.045 258.815 92.7247 258.092 93.6988C257.369 94.6729 257.151 95.8519 257.36 96.9873L258.698 112.527L259.013 112.676C259.359 112.891 259.705 113.106 260.035 113.372C261.133 114.317 261.848 115.489 261.932 116.531C261.976 116.882 261.923 117.376 261.555 117.719C260.882 118.538 259.41 118.445 257.994 117.689ZM246.361 89.3984C247.652 90.0609 248.67 91.0952 249.322 92.3043C249.414 92.5012 249.507 92.6981 249.584 92.9466L255.916 112.16L255.501 112.49C255.437 112.528 255.421 112.58 255.357 112.617C255.037 112.975 255 113.417 254.997 113.755C255.05 114.731 255.749 115.954 256.863 116.847C257.224 117.179 257.617 117.408 258.01 117.637C259.379 118.379 260.82 118.407 261.428 117.795C261.748 117.437 261.785 116.996 261.788 116.658C261.735 115.681 261.036 114.458 259.922 113.565C259.639 113.313 259.294 113.098 258.948 112.883L258.602 112.668L257.28 97.0768C257.024 95.9274 257.306 94.7106 258.028 93.7365C258.768 92.7107 259.915 92.031 261.198 91.9002C261.69 91.8188 262.243 91.8687 262.859 92.0498L275.205 95.0619L275.393 95.2866C275.642 95.6426 275.955 95.9608 276.285 96.2274C276.646 96.5595 277.039 96.7883 277.432 97.0171C278.801 97.7592 280.242 97.7874 280.85 97.1752C281.17 96.8174 281.206 96.3759 281.21 96.0379C281.157 95.0616 280.458 93.8386 279.344 92.9454C278.983 92.6133 278.59 92.3845 278.196 92.1557C276.827 91.4136 275.387 91.3854 274.779 91.9976C274.763 92.0493 274.699 92.0871 274.682 92.1388L274.296 92.7034C274.296 92.7034 255.734 84.81 255.371 84.6468C254.443 84.1475 253.123 83.2503 252.394 81.7926C250.362 77.9167 243.075 66.6165 242.996 66.537L242.576 65.9046L243.229 65.4753C243.357 65.3997 243.42 65.362 243.453 65.2586C243.774 64.9008 243.81 64.4594 243.814 64.1213C243.761 63.145 243.061 61.922 241.947 61.0289C241.587 60.6967 241.193 60.4679 240.8 60.2391C239.431 59.4971 237.991 59.4688 237.382 60.081C237.062 60.4389 237.026 60.8803 237.022 61.2183C237.075 62.1946 237.774 63.4177 238.889 64.3108C239.14 64.4978 239.391 64.6847 239.642 64.8717L239.753 64.8479L244.159 76.2605C244.39 76.8372 244.496 77.3204 244.459 77.7618C244.417 80.1797 242.26 82.0879 239.538 82.0215C235.629 81.9448 223.621 82.7625 223.51 82.7863L223.082 82.8299L222.817 82.5256C222.629 82.3009 222.394 82.0622 222.143 81.8752C221.782 81.5431 221.389 81.3143 220.996 81.0855C219.627 80.3434 218.186 80.3152 217.578 80.9274C217.258 81.2852 217.221 81.7266 217.218 82.0647C217.271 83.041 217.97 84.264 219.084 85.1571C219.445 85.4893 219.838 85.7181 220.231 85.9469C221.601 86.6889 223.041 86.7172 223.649 86.105C223.713 86.0672 223.745 85.9638 223.826 85.8743L224.084 85.3853L244.484 88.7894C244.737 88.8074 244.973 88.8771 245.163 88.9328C245.636 89.0721 245.999 89.2353 246.361 89.3984Z" fill="#9996FF"/>
<path d="M224.579 83.4963L223.233 84.9654C222.897 85.3749 222.294 85.4801 221.662 85.3506C221.473 85.2949 221.267 85.2909 221.094 85.1834C220.684 85.0064 220.244 84.7636 219.836 84.4175C219.428 84.0714 219.131 83.7015 218.898 83.2938C218.805 83.097 218.696 82.9518 218.651 82.7688C218.467 82.2061 218.505 81.5956 218.873 81.2518L220.218 79.7827L224.579 83.4963Z" fill="#6049E9"/>
<path d="M224.578 83.4962C225.267 82.7945 224.839 81.3687 223.615 80.3304C222.439 79.306 220.906 79.0809 220.201 79.8343C219.513 80.536 219.941 81.9618 221.165 83.0001C222.357 83.9727 223.874 84.2496 224.578 83.4962Z" fill="white"/>
<path d="M219.89 82.2861L218.882 83.3456C218.789 83.1487 218.68 83.0035 218.634 82.8206L219.643 81.7611L219.89 82.2861Z" fill="#3B1CAF"/>
<path d="M222.624 84.2773L221.615 85.3368C221.426 85.2811 221.22 85.277 221.047 85.1696L222.056 84.1101L222.624 84.2773Z" fill="#3B1CAF"/>
<path d="M223.908 82.5072L224.276 82.1633L223.852 81.8689C223.54 81.3817 222.865 80.9003 222.155 80.6913C222.06 80.6635 221.965 80.6356 221.823 80.5938L221.43 80.365L221.062 80.7089C220.982 80.7983 220.933 80.9534 221.026 81.1503C221.226 81.6614 222.011 82.2879 222.816 82.5248C223.384 82.692 223.748 82.6861 223.908 82.5072Z" fill="#6049E9"/>
<path d="M221.392 80.8065C221.531 81.1863 222.048 81.6776 222.631 81.9621L221.89 80.2181C221.478 80.21 221.254 80.4267 221.392 80.8065Z" fill="#796DF4"/>
<path d="M222.493 80.2827C222.256 80.213 222.067 80.1573 221.908 80.1672L222.65 81.9112C222.823 82.0186 223.012 82.0743 223.201 82.1301C223.343 82.1719 223.438 82.1997 223.533 82.2276L222.777 80.3663C222.713 80.404 222.571 80.3622 222.493 80.2827Z" fill="#3B1CAF"/>
<path d="M224.313 81.7217C224.143 81.2763 223.484 80.7432 222.807 80.4308L223.563 82.2922C224.163 82.356 224.482 82.1672 224.313 81.7217Z" fill="#796DF4"/>
<path d="M224.694 81.6652L224.998 81.3591L224.59 81.013C224.279 80.5257 223.603 80.0444 222.893 79.8354C222.798 79.8075 222.704 79.7796 222.562 79.7378L222.168 79.5091L221.801 79.8529C221.72 79.9424 221.671 80.0975 221.764 80.2944C221.965 80.8054 222.749 81.432 223.554 81.6688C224.153 81.9017 224.517 81.8958 224.694 81.6652Z" fill="#6049E9"/>
<path d="M223.999 81.4039C223.194 81.1671 222.362 80.5266 222.209 80.0294C222.008 79.5184 222.485 79.3197 223.29 79.5565C224.095 79.7934 224.927 80.4339 225.08 80.931C225.28 81.4421 224.803 81.6408 223.999 81.4039Z" fill="white"/>
<path d="M223.355 82.4578L222.472 82.1414L223.257 81.2986L224.187 81.6289L223.355 82.4578Z" fill="#6049E9"/>
<path d="M244.226 62.491L242.881 63.96C242.544 64.3695 241.942 64.4747 241.31 64.3453C241.12 64.2895 240.915 64.2855 240.742 64.1781C240.332 64.001 239.891 63.7583 239.483 63.4122C239.076 63.0661 238.779 62.6962 238.546 62.2885C238.453 62.0916 238.344 61.9464 238.298 61.7635C238.114 61.2007 238.152 60.5903 238.52 60.2464L239.865 58.7774L244.226 62.491Z" fill="#6049E9"/>
<path d="M244.226 62.4908C244.915 61.7891 244.487 60.3633 243.263 59.325C242.087 58.3007 240.554 58.0755 239.849 58.8289C239.145 59.5823 239.589 60.9564 240.813 61.9947C242.053 62.9813 243.586 63.2064 244.226 62.4908Z" fill="white"/>
<path d="M239.554 61.2286L238.545 62.2881C238.452 62.0913 238.343 61.9461 238.297 61.7631L239.306 60.7036L239.554 61.2286Z" fill="#3B1CAF"/>
<path d="M242.288 63.2202L241.279 64.2797C241.09 64.224 240.884 64.2199 240.711 64.1125L241.719 63.053L242.288 63.2202Z" fill="#3B1CAF"/>
<path d="M243.622 61.4647L243.99 61.1208L243.566 60.8264C243.254 60.3392 242.579 59.8578 241.869 59.6488C241.774 59.6209 241.679 59.5931 241.537 59.5513L241.144 59.3225L240.776 59.6664C240.696 59.7558 240.647 59.9109 240.74 60.1078C240.94 60.6189 241.725 61.2454 242.53 61.4823C243.082 61.7012 243.462 61.6436 243.622 61.4647Z" fill="#6049E9"/>
<path d="M241.107 59.7632C241.246 60.143 241.763 60.6343 242.345 60.9188L241.604 59.1748C241.145 59.1528 240.921 59.3695 241.107 59.7632Z" fill="#796DF4"/>
<path d="M242.188 59.2911C241.951 59.2215 241.762 59.1657 241.603 59.1756L242.345 60.9197C242.518 61.0271 242.707 61.0828 242.896 61.1385C243.038 61.1803 243.133 61.2082 243.228 61.2361L242.472 59.3747C242.377 59.3469 242.283 59.319 242.188 59.2911Z" fill="#3B1CAF"/>
<path d="M243.978 60.6657C243.809 60.2203 243.15 59.6872 242.472 59.3748L243.228 61.2362C243.812 61.3517 244.147 61.1112 243.978 60.6657Z" fill="#796DF4"/>
<path d="M244.39 60.6742L244.694 60.3681L244.286 60.022C243.975 59.5347 243.299 59.0533 242.589 58.8443C242.494 58.8165 242.4 58.7886 242.258 58.7468L241.864 58.518L241.497 58.8619C241.417 58.9514 241.367 59.1064 241.46 59.3033C241.661 59.8144 242.445 60.441 243.25 60.6778C243.849 60.9106 244.23 60.8531 244.39 60.6742Z" fill="#6049E9"/>
<path d="M243.662 60.3468C242.858 60.1099 242.025 59.4694 241.872 58.9723C241.672 58.4612 242.149 58.2625 242.954 58.4994C243.759 58.7362 244.591 59.3767 244.744 59.8739C244.991 60.3989 244.451 60.6353 243.662 60.3468Z" fill="white"/>
<path d="M243.051 61.4668L242.168 61.1504L242.953 60.3076L243.883 60.6379L243.051 61.4668Z" fill="#6049E9"/>
<path d="M258.06 111.604L256.714 113.074C256.33 113.469 256.308 114.028 256.492 114.591C256.538 114.774 256.631 114.97 256.74 115.116C256.926 115.509 257.27 115.893 257.63 116.225C258.038 116.571 258.479 116.814 258.889 116.991C259.078 117.047 259.267 117.103 259.457 117.158C260.088 117.288 260.691 117.183 261.028 116.773L262.373 115.304L258.06 111.604Z" fill="#6049E9"/>
<path d="M258.061 111.605C258.749 110.903 260.282 111.128 261.474 112.101C262.667 113.073 263.079 114.551 262.39 115.253C261.702 115.954 260.169 115.729 258.977 114.756C257.784 113.784 257.356 112.358 258.061 111.605Z" fill="white"/>
<path d="M259.85 115.918L258.841 116.977C259.031 117.033 259.22 117.089 259.41 117.145L260.418 116.085L259.85 115.918Z" fill="#3B1CAF"/>
<path d="M257.434 113.568L256.426 114.627C256.471 114.81 256.564 115.007 256.673 115.152L257.682 114.093L257.434 113.568Z" fill="#3B1CAF"/>
<path d="M259.194 112.108L259.515 111.75L259.859 112.134C260.41 112.352 260.99 112.975 261.315 113.58C261.377 113.711 261.408 113.776 261.439 113.842L261.753 114.16L261.432 114.518C261.352 114.608 261.177 114.669 260.988 114.613C260.403 114.498 259.699 113.782 259.311 113.046C259.014 112.676 258.987 112.272 259.194 112.108Z" fill="#6049E9"/>
<path d="M261.244 114.294C260.802 114.22 260.268 113.78 259.862 113.265L261.772 113.771C261.863 114.137 261.67 114.419 261.244 114.294Z" fill="#796DF4"/>
<path d="M261.636 113.222C261.729 113.419 261.774 113.602 261.836 113.733L259.926 113.227C259.817 113.082 259.724 112.885 259.615 112.74C259.553 112.609 259.522 112.543 259.507 112.426L261.528 112.908C261.496 113.011 261.574 113.091 261.636 113.222Z" fill="#3B1CAF"/>
<path d="M259.957 111.654C260.447 111.742 261.09 112.327 261.479 112.893L259.458 112.412C259.258 111.901 259.467 111.567 259.957 111.654Z" fill="#796DF4"/>
<path d="M259.912 111.302L260.232 110.944L260.593 111.276C261.145 111.495 261.724 112.118 262.05 112.722C262.111 112.853 262.142 112.919 262.173 112.985L262.487 113.303L262.166 113.661C262.086 113.75 261.911 113.812 261.722 113.756C261.137 113.641 260.433 112.925 260.045 112.189C259.748 111.819 259.704 111.467 259.912 111.302Z" fill="#6049E9"/>
<path d="M260.285 111.92C260.626 112.642 261.394 113.32 261.962 113.488C262.53 113.655 262.694 113.138 262.354 112.416C262.013 111.694 261.245 111.016 260.677 110.849C260.108 110.681 259.945 111.198 260.285 111.92Z" fill="white"/>
<path d="M259.234 112.628L259.7 113.444L260.485 112.601L260.035 111.734L259.234 112.628Z" fill="#6049E9"/>
<path d="M277.433 90.9705L276.088 92.4395C275.704 92.8351 275.682 93.3938 275.866 93.9566C275.911 94.1395 276.004 94.3364 276.114 94.4816C276.299 94.8753 276.643 95.2592 277.004 95.5914C277.412 95.9375 277.852 96.1802 278.262 96.3572C278.451 96.413 278.641 96.4687 278.83 96.5244C279.462 96.6539 280.065 96.5487 280.401 96.1391L281.747 94.6701L277.433 90.9705Z" fill="#6049E9"/>
<path d="M277.434 90.9704C278.122 90.2687 279.655 90.4939 280.847 91.4666C282.024 92.4909 282.452 93.9167 281.764 94.6184C281.075 95.3201 279.542 95.095 278.35 94.1223C277.173 93.0979 276.776 91.7378 277.434 90.9704Z" fill="white"/>
<path d="M279.287 95.2458L278.278 96.3053C278.467 96.3611 278.657 96.4168 278.846 96.4725L279.855 95.413L279.287 95.2458Z" fill="#3B1CAF"/>
<path d="M276.874 92.897L275.866 93.9565C275.911 94.1395 276.004 94.3363 276.113 94.4815L277.122 93.422L276.874 92.897Z" fill="#3B1CAF"/>
<path d="M278.568 91.4735L278.888 91.1156L279.232 91.4995C279.784 91.7184 280.363 92.3409 280.689 92.9455C280.751 93.0767 280.782 93.1424 280.813 93.208L281.126 93.5262L280.806 93.884C280.726 93.9735 280.551 94.0351 280.361 93.9794C279.777 93.8639 279.072 93.1478 278.684 92.412C278.404 91.9904 278.408 91.6524 278.568 91.4735Z" fill="#6049E9"/>
<path d="M280.664 93.6731C280.222 93.5994 279.689 93.1598 279.282 92.6447L281.192 93.1503C281.283 93.5162 281.06 93.7329 280.664 93.6731Z" fill="#796DF4"/>
<path d="M281.008 92.5874C281.101 92.7843 281.147 92.9673 281.208 93.0985L279.298 92.5929C279.189 92.4477 279.096 92.2508 278.987 92.1057C278.925 91.9744 278.894 91.9088 278.88 91.7915L280.901 92.2732C280.915 92.3906 280.994 92.4701 281.008 92.5874Z" fill="#3B1CAF"/>
<path d="M279.33 91.0199C279.82 91.1075 280.463 91.6923 280.852 92.2591L278.831 91.7773C278.695 91.2285 278.888 90.9462 279.33 91.0199Z" fill="#796DF4"/>
<path d="M279.352 90.6313L279.672 90.2735L280.033 90.6057C280.585 90.8246 281.164 91.4471 281.49 92.0517C281.551 92.1829 281.582 92.2486 281.613 92.3142L281.927 92.6324L281.606 92.9902C281.526 93.0797 281.351 93.1413 281.162 93.0855C280.577 92.97 279.873 92.254 279.485 91.5182C279.172 91.2 279.144 90.7963 279.352 90.6313Z" fill="#6049E9"/>
<path d="M279.71 91.3012C280.051 92.0231 280.819 92.7014 281.387 92.8686C281.971 92.9841 282.119 92.5188 281.778 91.797C281.438 91.0751 280.669 90.3968 280.101 90.2296C279.533 90.0624 279.369 90.5794 279.71 91.3012Z" fill="white"/>
<path d="M278.655 92.0078L279.073 92.8093L279.905 91.9804L279.456 91.1133L278.655 92.0078Z" fill="#6049E9"/>
<path opacity="0.52" d="M255.11 69.1414C258.793 65.1955 256.516 57.5177 249.99 51.9801C243.495 46.5082 235.215 45.2014 231.515 49.1989C227.832 53.1448 230.109 60.8226 236.635 66.3602C243.177 71.8461 251.427 73.0872 255.11 69.1414Z" fill="url(#paint34_linear)"/>
<path opacity="0.52" d="M292.534 101.462C296.217 97.5159 293.941 89.8381 287.415 84.3005C280.92 78.8285 272.639 77.5217 268.94 81.5193C265.24 85.5168 267.533 93.143 274.059 98.6805C280.554 104.152 288.851 105.408 292.534 101.462Z" fill="url(#paint35_linear)"/>
<path opacity="0.52" d="M273.159 122.095C276.842 118.15 274.566 110.472 268.04 104.934C261.545 99.4622 253.264 98.1554 249.565 102.153C245.882 106.099 248.158 113.777 254.684 119.314C261.226 124.8 269.476 126.041 273.159 122.095Z" fill="url(#paint36_linear)"/>
<path opacity="0.52" d="M235.428 90.4195C239.111 86.4737 236.835 78.7959 230.309 73.2583C223.814 67.7863 215.533 66.4795 211.834 70.4771C208.134 74.4746 210.427 82.1008 216.953 87.6383C223.448 93.1103 231.745 94.3654 235.428 90.4195Z" fill="url(#paint37_linear)"/>
<path d="M258.431 85.7732C258.338 85.5764 258.214 85.3139 258.074 85.1031C257.484 84.0252 256.641 82.9293 255.543 81.9845C255.213 81.718 254.836 81.4375 254.507 81.171C253.706 80.5961 252.919 80.1385 252.083 79.8361C251.863 79.7147 251.579 79.6311 251.342 79.5614C249.086 78.841 246.931 79.1108 245.698 80.387C244.449 81.7148 244.427 83.743 245.323 85.8151C245.4 86.0637 245.54 86.2745 245.664 86.537C246.254 87.6149 247.241 88.5835 248.339 89.5283C249.437 90.4731 250.504 91.3523 251.655 91.804C251.875 91.9254 252.159 92.009 252.396 92.0786C253.626 92.4409 254.781 92.5545 255.78 92.3401C256.652 92.2012 257.352 91.9548 258.056 91.2014C259.289 89.9252 259.374 87.8593 258.431 85.7732Z" fill="url(#paint38_linear)"/>
<path d="M249.533 88.8625C249.407 88.769 249.312 88.7411 249.187 88.6476C248.466 87.9833 248.398 86.8897 249.086 86.188L249.711 85.524C250.272 84.8979 251.191 84.7729 251.947 85.1648C252.072 85.2583 252.167 85.2862 252.293 85.3797C252.653 85.7118 252.839 86.1056 252.897 86.5748C252.908 87.0302 252.761 87.4954 252.393 87.8393L251.769 88.5032C251.161 89.1155 250.288 89.2544 249.533 88.8625ZM251.867 85.2543C251.206 84.8902 250.334 85.0291 249.789 85.6036L249.165 86.2675C248.54 86.9315 248.577 87.9595 249.267 88.5582C249.345 88.6377 249.471 88.7312 249.565 88.7591C250.226 89.1232 251.099 88.9842 251.643 88.4098L252.267 87.7458C252.571 87.4397 252.703 87.0262 252.739 86.5847C252.728 86.1294 252.542 85.7356 252.213 85.4691C252.071 85.4273 251.992 85.3478 251.867 85.2543Z" fill="#5130D5"/>
<path d="M249.955 87.8562C249.468 87.4306 249.414 86.6233 249.878 86.1382L249.494 86.5338C249.03 87.0188 249.037 87.8122 249.57 88.2518C250.057 88.6775 250.896 88.6419 251.36 88.1569L251.744 87.7613C251.233 88.2324 250.441 88.2819 249.955 87.8562Z" fill="#3B1CAF"/>
<path d="M251.905 85.7741C251.419 85.3485 250.579 85.384 250.115 85.8691L249.875 86.1374C249.411 86.6224 249.418 87.4158 249.951 87.8554C250.438 88.2811 251.277 88.2455 251.741 87.7605L251.982 87.4921C252.446 87.0071 252.375 86.2515 251.905 85.7741Z" fill="#2C097F"/>
<path d="M247.642 82.0895C247.249 81.8607 246.936 81.5424 246.909 81.1388C246.865 80.7868 246.98 80.425 247.236 80.1049C247.797 79.4788 249.019 79.2166 249.949 79.547L251.559 80.0207C252.174 80.2018 252.613 80.6135 252.718 81.0967C252.762 81.4487 252.648 81.8106 252.391 82.1306C251.846 82.7051 250.672 82.9811 249.773 82.7164L248.068 82.2148C247.91 82.2247 247.784 82.1313 247.642 82.0895ZM251.888 80.2872C251.793 80.2594 251.668 80.1659 251.526 80.1241L249.916 79.6504C249.017 79.3857 247.859 79.61 247.315 80.1845C247.074 80.4529 246.96 80.8147 247.02 81.115C247.094 81.5325 247.486 81.9303 248.101 82.1115L249.805 82.613C250.705 82.8777 251.768 82.6255 252.313 82.051C252.553 81.7827 252.668 81.4208 252.607 81.1206C252.547 80.8203 252.281 80.516 251.888 80.2872Z" fill="#5130D5"/>
<path d="M251.395 80.5376L249.785 80.0639C249.028 79.841 248.092 80.0177 247.628 80.5027C247.163 80.9878 247.458 81.5267 248.168 81.7357L249.873 82.2373C250.583 82.4463 251.519 82.2696 251.936 81.7706C252.383 81.3373 252.152 80.7606 251.395 80.5376Z" fill="#1D263C"/>
<path d="M256.675 90.0039C256.36 89.8546 256.094 89.5503 255.956 89.1705L255.26 87.6094C254.922 86.7186 255.06 85.629 255.668 85.0167C256.116 84.5834 256.671 84.4642 257.207 84.7348C257.522 84.884 257.787 85.1883 257.926 85.5681L258.59 87.0636C258.993 87.9167 258.822 89.1097 258.214 89.722C257.797 90.2209 257.211 90.2744 256.675 90.0039ZM257.11 84.876C256.622 84.6193 256.114 84.7524 255.73 85.148C255.186 85.7224 255.016 86.7464 255.372 87.5856L256.067 89.1467C256.206 89.5265 256.488 89.7791 256.755 89.9144C257.243 90.171 257.751 90.038 258.135 89.6424C258.68 89.0679 258.835 87.9266 258.463 87.1391L257.798 85.6437C257.644 85.3155 257.378 85.0112 257.11 84.876Z" fill="#5130D5"/>
<path d="M258.05 87.3001L257.385 85.8046C257.092 85.0967 256.477 84.9155 256.012 85.4006C255.564 85.8339 255.475 86.7684 255.738 87.4107L256.433 88.9718C256.726 89.6798 257.342 89.8609 257.806 89.3759C258.254 88.9425 258.343 88.008 258.05 87.3001Z" fill="#1D263C"/>
<path d="M248.29 80.6977C248.691 80.2505 249.626 80.0738 250.353 80.2311L249.785 80.0639C249.027 79.841 248.092 80.0177 247.627 80.5027C247.163 80.9877 247.458 81.5267 248.168 81.7356L248.784 81.9168C248.073 81.7078 247.842 81.1311 248.29 80.6977Z" fill="#3B1CAF"/>
<path d="M251.966 81.8353C252.43 81.3503 252.135 80.8114 251.425 80.6024L250.384 80.2958C249.674 80.0869 248.738 80.2635 248.321 80.7625C247.857 81.2475 248.152 81.7865 248.862 81.9955L249.903 82.302C250.63 82.4593 251.518 82.2687 251.966 81.8353Z" fill="#2C097F"/>
<path d="M257.574 88.7991C258.022 88.3658 258.111 87.4313 257.849 86.789L258.097 87.314C258.39 88.0219 258.301 88.9564 257.853 89.3898C257.405 89.8231 256.79 89.642 256.48 88.9857L256.249 88.409C256.495 89.1031 257.11 89.2842 257.574 88.7991Z" fill="#3B1CAF"/>
<path d="M256.059 85.4144C256.507 84.9811 257.122 85.1622 257.432 85.8185L257.849 86.7889C258.095 87.4829 258.022 88.3658 257.574 88.7991C257.126 89.2324 256.511 89.0513 256.201 88.3951L255.784 87.4246C255.491 86.7166 255.611 85.8478 256.059 85.4144Z" fill="#2C097F"/>
<path d="M257.188 87.8942C257.973 87.0513 258.018 85.7649 257.415 84.4007C257.354 84.2694 257.292 84.1382 257.199 83.9413C256.795 83.2572 256.296 82.5452 255.558 81.9325C255.354 81.7595 255.103 81.5725 254.899 81.3994C254.396 81.0255 253.861 80.7549 253.357 80.5499C253.215 80.5082 253.042 80.4007 252.883 80.4106C251.432 79.927 250.085 80.0956 249.3 80.9385C248.516 81.7813 248.47 83.0678 249.073 84.432C249.135 84.5632 249.18 84.7462 249.29 84.8914C249.694 85.5755 250.273 86.198 251.01 86.8107C251.7 87.4094 252.407 87.9564 253.132 88.2827C253.274 88.3245 253.447 88.4319 253.605 88.422C254.362 88.645 255.122 88.6989 255.772 88.6076C256.311 88.5401 256.771 88.3931 257.188 87.8942Z" fill="url(#paint39_linear)"/>
<path opacity="0.55" d="M251.676 82.8267C252.681 82.9609 253.568 82.6653 253.658 82.1665C253.749 81.6676 253.007 81.1544 252.002 81.0201C250.998 80.8859 250.11 81.1815 250.02 81.6804C249.93 82.1792 250.671 82.6925 251.676 82.8267Z" fill="#F4ECFB"/>
<path d="M239.521 93.9976L234.509 99.3607C234.525 99.309 234.478 99.2951 234.494 99.2434L234.511 99.1917L239.363 94.0074C239.363 94.0074 239.41 94.0214 239.426 93.9697C239.474 93.9836 239.521 93.9976 239.521 93.9976Z" fill="#6049E9"/>
<path d="M245.026 98.839L240.19 103.972C240.19 103.972 240.19 103.972 240.143 103.958C240.143 103.958 240.095 103.944 240.079 103.995C240.032 103.981 240.032 103.981 239.968 104.019L244.964 98.7077C244.964 98.7077 244.947 98.7594 244.995 98.7733C245.058 98.7356 245.042 98.7873 245.026 98.839C245.026 98.839 245.042 98.7873 245.026 98.839Z" fill="#6049E9"/>
<path opacity="0.55" d="M254.88 81.7896C255.148 81.9249 255.271 82.1874 255.159 82.3802C255.046 82.5731 254.776 82.6068 254.509 82.4715C254.241 82.3362 254.117 82.0737 254.23 81.8809C254.343 81.688 254.612 81.6543 254.88 81.7896Z" fill="#F4ECFB"/>
<defs>
<linearGradient id="paint0_linear" x1="63.3686" y1="285.399" x2="420.234" y2="-93.8997" gradientUnits="userSpaceOnUse">
<stop stop-color="#5941E9"/>
<stop offset="1" stop-color="#CD7CF8"/>
</linearGradient>
<linearGradient id="paint1_linear" x1="84.0996" y1="125.198" x2="91.7921" y2="117.02" gradientUnits="userSpaceOnUse">
<stop stop-color="white"/>
<stop offset="1"/>
</linearGradient>
<linearGradient id="paint2_linear" x1="84.0996" y1="125.198" x2="91.7921" y2="117.02" gradientUnits="userSpaceOnUse">
<stop stop-color="#6BE2FF"/>
<stop offset="1" stop-color="#6BE2FF"/>
</linearGradient>
<linearGradient id="paint3_linear" x1="263.284" y1="84.2666" x2="267.938" y2="79.3188" gradientUnits="userSpaceOnUse">
<stop stop-color="white"/>
<stop offset="1"/>
</linearGradient>
<linearGradient id="paint4_linear" x1="263.284" y1="84.2666" x2="267.938" y2="79.3188" gradientUnits="userSpaceOnUse">
<stop stop-color="#6BE2FF"/>
<stop offset="1" stop-color="#6BE2FF"/>
</linearGradient>
<linearGradient id="paint5_linear" x1="160.65" y1="88.3" x2="171.845" y2="76.3979" gradientUnits="userSpaceOnUse">
<stop stop-color="white"/>
<stop offset="1"/>
</linearGradient>
<linearGradient id="paint6_linear" x1="160.528" y1="88.6496" x2="172.232" y2="76.4171" gradientUnits="userSpaceOnUse">
<stop stop-color="#6BE2FF"/>
<stop offset="1" stop-color="#6BE2FF"/>
</linearGradient>
<linearGradient id="paint7_linear" x1="208.784" y1="74.1242" x2="214.774" y2="67.7564" gradientUnits="userSpaceOnUse">
<stop stop-color="white"/>
<stop offset="1"/>
</linearGradient>
<linearGradient id="paint8_linear" x1="208.648" y1="74.4842" x2="214.638" y2="68.1163" gradientUnits="userSpaceOnUse">
<stop stop-color="#6BE2FF"/>
<stop offset="1" stop-color="#6BE2FF"/>
</linearGradient>
<linearGradient id="paint9_linear" x1="288.767" y1="153.769" x2="300.723" y2="141.06" gradientUnits="userSpaceOnUse">
<stop stop-color="white"/>
<stop offset="1"/>
</linearGradient>
<linearGradient id="paint10_linear" x1="289.032" y1="154.112" x2="301.35" y2="141.58" gradientUnits="userSpaceOnUse">
<stop stop-color="#6BE2FF"/>
<stop offset="1" stop-color="#6BE2FF"/>
</linearGradient>
<linearGradient id="paint11_linear" x1="235.35" y1="50.2293" x2="256.198" y2="28.0665" gradientUnits="userSpaceOnUse">
<stop stop-color="white"/>
<stop offset="1"/>
</linearGradient>
<linearGradient id="paint12_linear" x1="236.196" y1="49.8848" x2="256.693" y2="28.0683" gradientUnits="userSpaceOnUse">
<stop stop-color="#6BE2FF"/>
<stop offset="1" stop-color="#6BE2FF"/>
</linearGradient>
<linearGradient id="paint13_linear" x1="176.554" y1="98.2926" x2="181.334" y2="102.67" gradientUnits="userSpaceOnUse">
<stop stop-color="#D16DF8"/>
<stop offset="0.9996" stop-color="#2F098F"/>
</linearGradient>
<linearGradient id="paint14_linear" x1="182.49" y1="95.4816" x2="187.27" y2="99.8592" gradientUnits="userSpaceOnUse">
<stop stop-color="#6450E8"/>
<stop offset="0.9996" stop-color="#2F098F"/>
</linearGradient>
<linearGradient id="paint15_linear" x1="190.726" y1="107.707" x2="195.506" y2="112.085" gradientUnits="userSpaceOnUse">
<stop stop-color="#6450E8"/>
<stop offset="0.9996" stop-color="#2F098F"/>
</linearGradient>
<linearGradient id="paint16_linear" x1="194.166" y1="132.679" x2="198.946" y2="137.056" gradientUnits="userSpaceOnUse">
<stop stop-color="#6450E8"/>
<stop offset="0.9996" stop-color="#2F098F"/>
</linearGradient>
<linearGradient id="paint17_linear" x1="163.708" y1="132.678" x2="168.489" y2="137.056" gradientUnits="userSpaceOnUse">
<stop stop-color="#D16DF8"/>
<stop offset="0.9996" stop-color="#2F098F"/>
</linearGradient>
<linearGradient id="paint18_linear" x1="109.063" y1="117.346" x2="113.843" y2="121.723" gradientUnits="userSpaceOnUse">
<stop stop-color="#D16DF8"/>
<stop offset="0.9996" stop-color="#2F098F"/>
</linearGradient>
<linearGradient id="paint19_linear" x1="118.114" y1="108.794" x2="122.894" y2="113.172" gradientUnits="userSpaceOnUse">
<stop stop-color="#6450E8"/>
<stop offset="0.9996" stop-color="#2F098F"/>
</linearGradient>
<linearGradient id="paint20_linear" x1="122.707" y1="123.446" x2="127.487" y2="127.824" gradientUnits="userSpaceOnUse">
<stop stop-color="#6450E8"/>
<stop offset="0.9996" stop-color="#2F098F"/>
</linearGradient>
<linearGradient id="paint21_linear" x1="148.682" y1="110.271" x2="174.645" y2="110.271" gradientUnits="userSpaceOnUse">
<stop stop-color="#59CEF8"/>
<stop offset="0.1958" stop-color="#6450E8"/>
<stop offset="0.6845" stop-color="#36119E"/>
<stop offset="0.7834" stop-color="#3E18A2"/>
<stop offset="0.9405" stop-color="#552DAE"/>
<stop offset="1" stop-color="#6036B3"/>
</linearGradient>
<linearGradient id="paint22_linear" x1="170.238" y1="125.638" x2="189.375" y2="125.638" gradientUnits="userSpaceOnUse">
<stop stop-color="#59CEF8"/>
<stop offset="0.1958" stop-color="#6450E8"/>
<stop offset="0.6845" stop-color="#36119E"/>
<stop offset="0.7834" stop-color="#3E18A2"/>
<stop offset="0.9405" stop-color="#552DAE"/>
<stop offset="1" stop-color="#6036B3"/>
</linearGradient>
<linearGradient id="paint23_linear" x1="171.65" y1="114.571" x2="187.961" y2="114.571" gradientUnits="userSpaceOnUse">
<stop stop-color="white"/>
<stop offset="1"/>
</linearGradient>
<linearGradient id="paint24_linear" x1="171.65" y1="114.571" x2="187.961" y2="114.571" gradientUnits="userSpaceOnUse">
<stop stop-color="#59CEF8"/>
<stop offset="1" stop-color="#59CEF8"/>
</linearGradient>
<linearGradient id="paint25_linear" x1="209.236" y1="115.181" x2="214.016" y2="119.559" gradientUnits="userSpaceOnUse">
<stop stop-color="#D16DF8"/>
<stop offset="0.9996" stop-color="#2F098F"/>
</linearGradient>
<linearGradient id="paint26_linear" x1="135.802" y1="101.728" x2="145.165" y2="101.728" gradientUnits="userSpaceOnUse">
<stop stop-color="#6450E8"/>
<stop offset="0.6845" stop-color="#36119E"/>
<stop offset="0.7834" stop-color="#3E18A2"/>
<stop offset="0.9405" stop-color="#552DAE"/>
<stop offset="1" stop-color="#6036B3"/>
</linearGradient>
<linearGradient id="paint27_linear" x1="130.75" y1="117.787" x2="149.887" y2="117.787" gradientUnits="userSpaceOnUse">
<stop stop-color="#59CEF8"/>
<stop offset="0.1958" stop-color="#6450E8"/>
<stop offset="0.6845" stop-color="#36119E"/>
<stop offset="0.7834" stop-color="#3E18A2"/>
<stop offset="0.9405" stop-color="#552DAE"/>
<stop offset="1" stop-color="#6036B3"/>
</linearGradient>
<linearGradient id="paint28_linear" x1="132.379" y1="106.736" x2="148.262" y2="106.736" gradientUnits="userSpaceOnUse">
<stop stop-color="white"/>
<stop offset="1"/>
</linearGradient>
<linearGradient id="paint29_linear" x1="132.379" y1="106.736" x2="148.262" y2="106.736" gradientUnits="userSpaceOnUse">
<stop stop-color="#59CEF8"/>
<stop offset="1" stop-color="#59CEF8"/>
</linearGradient>
<linearGradient id="paint30_linear" x1="141.314" y1="132.728" x2="160.451" y2="132.728" gradientUnits="userSpaceOnUse">
<stop stop-color="#59CEF8"/>
<stop offset="0.1958" stop-color="#6450E8"/>
<stop offset="0.6845" stop-color="#36119E"/>
<stop offset="0.7834" stop-color="#3E18A2"/>
<stop offset="0.9405" stop-color="#552DAE"/>
<stop offset="1" stop-color="#6036B3"/>
</linearGradient>
<linearGradient id="paint31_linear" x1="237.356" y1="103.493" x2="242.39" y2="94.5826" gradientUnits="userSpaceOnUse">
<stop stop-color="#513AE7"/>
<stop offset="0.1639" stop-color="#5641E9"/>
<stop offset="0.4089" stop-color="#6456F0"/>
<stop offset="0.5165" stop-color="#6C61F3"/>
<stop offset="0.5584" stop-color="#695CF2"/>
<stop offset="0.8266" stop-color="#5743EA"/>
<stop offset="0.989" stop-color="#513AE7"/>
</linearGradient>
<linearGradient id="paint32_linear" x1="243.244" y1="95.5059" x2="257.348" y2="82.1057" gradientUnits="userSpaceOnUse">
<stop stop-color="#6D62F4"/>
<stop offset="1" stop-color="#513AE7"/>
</linearGradient>
<linearGradient id="paint33_linear" x1="220.418" y1="98.7411" x2="279.342" y2="84.673" gradientUnits="userSpaceOnUse">
<stop stop-color="#9996FF"/>
<stop offset="1" stop-color="white"/>
</linearGradient>
<linearGradient id="paint34_linear" x1="229.996" y1="51.6373" x2="256.938" y2="66.1862" gradientUnits="userSpaceOnUse">
<stop stop-color="#42DAFF"/>
<stop offset="1" stop-color="white"/>
</linearGradient>
<linearGradient id="paint35_linear" x1="267.416" y1="83.9689" x2="294.358" y2="98.5178" gradientUnits="userSpaceOnUse">
<stop stop-color="#42DAFF"/>
<stop offset="1" stop-color="white"/>
</linearGradient>
<linearGradient id="paint36_linear" x1="248.053" y1="104.578" x2="274.995" y2="119.127" gradientUnits="userSpaceOnUse">
<stop stop-color="#42DAFF"/>
<stop offset="1" stop-color="white"/>
</linearGradient>
<linearGradient id="paint37_linear" x1="210.304" y1="72.9177" x2="237.246" y2="87.4666" gradientUnits="userSpaceOnUse">
<stop stop-color="#42DAFF"/>
<stop offset="1" stop-color="white"/>
</linearGradient>
<linearGradient id="paint38_linear" x1="244.802" y1="81.8008" x2="259.123" y2="89.5341" gradientUnits="userSpaceOnUse">
<stop stop-color="#C86DF8"/>
<stop offset="1" stop-color="#6049E9"/>
</linearGradient>
<linearGradient id="paint39_linear" x1="248.725" y1="81.8876" x2="257.868" y2="86.825" gradientUnits="userSpaceOnUse">
<stop stop-color="#D191FA"/>
<stop offset="1" stop-color="#C86DF8"/>
</linearGradient>
</defs>
</svg>
