<svg width="340" height="340" viewBox="0 0 340 340" fill="none" xmlns="http://www.w3.org/2000/svg">
<g clip-path="url(#clip0)">
<path d="M170 318.435C264.464 318.435 341.043 277.502 341.043 227.009C341.043 176.516 264.464 135.583 170 135.583C75.5356 135.583 -1.04297 176.516 -1.04297 227.009C-1.04297 277.502 75.5356 318.435 170 318.435Z" fill="#F0F0F0"/>
<path d="M103.462 39.44L99.008 42.0172C99.008 41.8132 99.0419 41.616 99.0419 41.4256V40.12C99.0419 37.8216 97.4303 36.89 95.4447 38.0392C94.5904 38.5572 93.8576 39.2529 93.2959 40.0792C92.9695 37.1892 90.7051 36.1148 87.9511 37.706C84.9727 39.4196 82.5656 43.6016 82.5656 47.0356V48.96C82.5454 49.7307 82.7013 50.4958 83.0212 51.1972L79.322 53.3324C78.7399 53.7113 78.2554 54.2223 77.908 54.8237C77.5606 55.4251 77.3601 56.1001 77.3228 56.7936C77.3228 58.072 78.2136 58.582 79.322 57.9496L103.462 44.0096C104.043 43.6295 104.526 43.1183 104.874 42.5171C105.221 41.9159 105.422 41.2416 105.461 40.5484C105.461 39.2904 104.564 38.76 103.462 39.44Z" fill="#EBEBEB"/>
<path d="M61.0843 32.4768L58.6295 33.422V27.982C58.6295 23.6912 55.2295 22.6644 51.4895 24.8064C47.7699 26.9552 44.7575 32.1708 44.7575 36.4684V37.2504C44.2346 37.0897 43.6821 37.0496 43.1415 37.1332C42.6008 37.2168 42.0862 37.422 41.6363 37.7332C40.2211 38.6542 39.044 39.8971 38.2013 41.3602C37.3586 42.8234 36.8743 44.4653 36.7879 46.1516V46.5052L33.3879 48.484C32.46 49.0892 31.6877 49.9044 31.1336 50.8637C30.5795 51.8231 30.2592 52.8994 30.1987 54.0056C30.1987 56.0456 31.6267 56.8684 33.3879 55.8484L61.0843 39.848C62.0124 39.2414 62.7847 38.4249 63.3388 37.4645C63.8928 36.504 64.213 35.4267 64.2735 34.3196C64.2735 32.2864 62.8455 31.4636 61.0843 32.4768Z" fill="#EBEBEB"/>
<path d="M19.8765 198.988V212.473L69.5301 241.142V227.65L19.8765 198.988Z" fill="#C2B3F3"/>
<path d="M69.53 241.142L165.913 185.497V172.006L69.53 227.65V241.142Z" fill="#C2B3F3"/>
<path d="M116.26 139.964L14.0352 198.968V202.354L69.53 234.396L171.754 175.379V171.986L116.26 139.964Z" fill="#DFD6FF"/>
<path opacity="0.15" d="M14.0352 198.968L69.5299 231.003V234.396L14.0352 202.354V198.968Z" fill="black"/>
<path opacity="0.1" d="M69.53 231.003L171.754 171.986V175.379L69.53 234.396V231.003Z" fill="black"/>
<path d="M128.024 240.577V254.068L212.718 302.967V289.476L128.024 240.577Z" fill="#C2B3F3"/>
<path d="M212.718 302.967L312.025 245.636V232.145L212.718 289.476V302.967Z" fill="#C2B3F3"/>
<path d="M226.1 178.575L120.387 239.523V242.916L212.718 296.222L318.43 235.28V231.894L226.1 178.575Z" fill="#DFD6FF"/>
<path opacity="0.15" d="M120.387 239.523L212.718 292.835V296.221L120.387 242.916V239.523Z" fill="black"/>
<path opacity="0.1" d="M212.718 292.835L318.43 231.894V235.28L212.718 296.222V292.835Z" fill="black"/>
<path d="M184.987 217.688L246.65 248.091V199.036L184.987 163.438V217.688Z" fill="#F0F0F0"/>
<path d="M184.987 172.774L246.65 208.379V199.036L184.987 163.438V172.774Z" fill="#E0E0E0"/>
<path d="M246.65 248.091L287.762 224.352V175.304L267.206 163.438L246.65 199.036V248.091Z" fill="#FAFAFA"/>
<path d="M243.712 204.122L267.206 163.438V160.895L243.712 201.579V204.122Z" fill="#37474F"/>
<path d="M205.54 125.296L182.049 165.983L243.712 201.585L267.203 160.898L205.54 125.296Z" fill="#455A64"/>
<path d="M182.05 165.981L243.712 201.579V204.122L182.05 168.524V165.981Z" fill="#263238"/>
<path d="M267.206 160.895L292.896 175.726L290.7 176.997L267.206 163.438V160.895Z" fill="#37474F"/>
<path d="M290.7 176.997H287.762V175.304L290.7 176.997Z" fill="#263238"/>
<path d="M196.683 161.643V149.437L203.714 145.377L210.718 157.508V169.755L196.683 161.643Z" fill="#F0F0F0"/>
<path opacity="0.2" d="M203.714 145.377L195.038 150.382L193.929 149.743L203.714 144.092V145.377Z" fill="black"/>
<path d="M210.719 169.755L217.729 157.59L221.306 151.375L210.719 157.502V169.755Z" fill="#FAFAFA"/>
<path opacity="0.4" d="M195.038 150.382H196.683V149.437L195.038 150.382Z" fill="black"/>
<path d="M212.391 160.398L203.714 145.377V144.092L213.472 161.024L212.391 160.398Z" fill="#263238"/>
<path d="M213.472 161.024L203.714 144.092L213.806 138.258L223.564 155.19L213.472 161.024Z" fill="#37474F"/>
<path d="M207.21 155.543L200.192 151.49V159.582L207.21 163.642V155.543Z" fill="#455A64"/>
<path d="M200.913 159.168V151.905L207.21 155.543V162.806L200.913 159.168Z" fill="#E0E0E0"/>
<path d="M200.192 159.582L200.913 159.168L207.21 162.806V163.642L200.192 159.582Z" fill="#37474F"/>
<path d="M226.046 178.595V166.389L233.07 162.33L240.081 174.461V186.708L226.046 178.595Z" fill="#F0F0F0"/>
<path opacity="0.2" d="M233.07 162.33L224.4 167.334L223.292 166.695L233.07 161.044V162.33Z" fill="black"/>
<path d="M240.074 186.708L247.085 174.549L250.668 168.327L240.074 174.461V186.708Z" fill="#FAFAFA"/>
<path opacity="0.4" d="M224.4 167.334H226.046V166.389L224.4 167.334Z" fill="black"/>
<path d="M241.747 177.351L233.07 162.33V161.044L242.835 177.976L241.747 177.351Z" fill="#263238"/>
<path d="M242.835 177.976L233.07 161.044L243.161 155.21L252.919 172.142L242.835 177.976Z" fill="#37474F"/>
<path d="M236.572 172.496L229.554 168.443V176.542L236.572 180.594V172.496Z" fill="#455A64"/>
<path d="M230.268 176.12V168.858L236.572 172.496V179.765L230.268 176.12Z" fill="#E0E0E0"/>
<path d="M229.554 176.542L230.268 176.12L236.572 179.765V180.594L229.554 176.542Z" fill="#37474F"/>
<path d="M271.449 212.908L286.13 204.428V220.028L271.449 228.5V212.908Z" fill="#263238"/>
<path d="M285.226 219.504V204.945L271.449 212.908V227.46L285.226 219.504Z" fill="#E6E6E6"/>
<path d="M285.226 204.945V206.441L271.449 214.397V212.908L285.226 204.945Z" fill="#E0E0E0"/>
<path d="M286.13 220.028L285.226 219.504L271.449 227.46V228.5L286.13 220.028Z" fill="#37474F"/>
<path d="M286.13 212.228L285.226 211.704L271.449 219.66V220.701L286.13 212.228Z" fill="#37474F"/>
<path d="M279.092 224.087L278.188 224.611V209.012L279.092 208.488V224.087Z" fill="#37474F"/>
<path d="M254.782 243.399V221L266.308 214.343V236.742L254.782 243.399Z" fill="#37474F"/>
<path d="M265.771 236.341V214.649L254.782 221V242.692L265.771 236.341Z" fill="#455A64"/>
<path d="M266.308 214.343L265.771 214.649V236.341L266.308 236.742V214.343Z" fill="#263238"/>
<path d="M279.67 201.525L253.422 216.682V209.1L279.67 193.827V201.525Z" fill="#E0E0E0"/>
<path d="M261.297 184.314L271.796 178.255V196.976L261.297 203.041V184.314Z" fill="#455A64"/>
<path d="M271.374 196.738V178.5L261.297 184.314V202.552L271.374 196.738Z" fill="#E6E6E6"/>
<path d="M271.374 178.5V180.35L261.297 186.17V184.314L271.374 178.5Z" fill="#E0E0E0"/>
<path d="M271.796 196.976L271.374 196.738L261.297 202.552V203.041L271.796 196.976Z" fill="#37474F"/>
<path d="M266.968 181.043L266.546 181.288V200.008L266.968 199.77V181.043Z" fill="#455A64"/>
<path d="M266.546 181.288V200.008L266.125 199.77V181.526L266.546 181.288Z" fill="#37474F"/>
<path d="M253.422 207.59L279.67 192.433L284.92 195.466L258.672 210.616L253.422 207.59Z" fill="#E0E0E0"/>
<path d="M253.422 207.59V209.1L258.672 212.133V210.616L253.422 207.59Z" fill="#EBEBEB"/>
<path d="M258.672 210.616L284.92 195.466V196.982L258.672 212.133V210.616Z" fill="#F5F5F5"/>
<path d="M258.862 200.77V209.773C258.861 209.791 258.854 209.808 258.844 209.823C258.833 209.837 258.818 209.848 258.801 209.855C258.76 209.875 258.714 209.885 258.669 209.885C258.623 209.885 258.577 209.875 258.536 209.855C258.519 209.849 258.505 209.838 258.495 209.823C258.485 209.808 258.481 209.791 258.482 209.773V200.77H258.862Z" fill="#37474F"/>
<path d="M261.12 199.458V208.468C261.118 208.484 261.112 208.499 261.103 208.512C261.093 208.525 261.08 208.535 261.066 208.542C261.023 208.562 260.977 208.573 260.93 208.573C260.883 208.573 260.836 208.562 260.794 208.542C260.779 208.535 260.766 208.525 260.757 208.512C260.747 208.499 260.741 208.484 260.739 208.468V199.458H261.12Z" fill="#37474F"/>
<path d="M263.398 198.145V207.155C263.395 207.172 263.389 207.188 263.38 207.202C263.37 207.216 263.358 207.228 263.343 207.237C263.301 207.257 263.254 207.267 263.207 207.267C263.16 207.267 263.114 207.257 263.071 207.237C263.057 207.228 263.045 207.216 263.035 207.202C263.026 207.188 263.02 207.172 263.017 207.155V198.145H263.398Z" fill="#37474F"/>
<path d="M265.669 196.839V205.843C265.668 205.861 265.661 205.878 265.651 205.892C265.64 205.907 265.625 205.918 265.608 205.924C265.567 205.945 265.521 205.955 265.475 205.955C265.429 205.955 265.384 205.945 265.343 205.924C265.326 205.918 265.312 205.907 265.302 205.893C265.292 205.878 265.287 205.86 265.288 205.843V196.839H265.669Z" fill="#37474F"/>
<path d="M267.92 195.527V204.537C267.919 204.554 267.914 204.57 267.904 204.583C267.895 204.596 267.881 204.606 267.865 204.612C267.824 204.635 267.777 204.647 267.729 204.647C267.682 204.647 267.635 204.635 267.593 204.612C267.579 204.605 267.566 204.595 267.557 204.582C267.547 204.568 267.541 204.553 267.539 204.537V195.527H267.92Z" fill="#37474F"/>
<path d="M270.205 194.215V203.225C270.202 203.241 270.196 203.257 270.187 203.272C270.177 203.286 270.165 203.298 270.15 203.306C270.108 203.326 270.061 203.337 270.014 203.337C269.967 203.337 269.921 203.326 269.878 203.306C269.864 203.298 269.851 203.286 269.842 203.272C269.833 203.257 269.827 203.241 269.824 203.225V194.215H270.205Z" fill="#37474F"/>
<path d="M272.476 192.909V201.919C272.476 201.919 272.476 201.974 272.415 201.994C272.374 202.014 272.328 202.025 272.282 202.025C272.236 202.025 272.191 202.014 272.15 201.994C272.134 201.988 272.12 201.978 272.111 201.965C272.101 201.952 272.096 201.936 272.095 201.919V192.909H272.476Z" fill="#37474F"/>
<path d="M274.72 191.597V200.6C274.719 200.617 274.714 200.633 274.704 200.646C274.695 200.659 274.681 200.669 274.666 200.675C274.625 200.698 274.579 200.71 274.533 200.71C274.486 200.71 274.441 200.698 274.4 200.675C274.36 200.675 274.339 200.627 274.339 200.6V191.597H274.72Z" fill="#37474F"/>
<path d="M277.012 190.284V199.294C277.009 199.311 277.003 199.327 276.994 199.341C276.984 199.355 276.972 199.367 276.957 199.376C276.915 199.396 276.868 199.406 276.821 199.406C276.774 199.406 276.728 199.396 276.685 199.376C276.671 199.367 276.658 199.355 276.649 199.341C276.64 199.327 276.633 199.311 276.631 199.294V190.284H277.012Z" fill="#37474F"/>
<path d="M279.283 188.979V197.989C279.283 197.989 279.283 198.043 279.221 198.064C279.18 198.084 279.135 198.095 279.089 198.095C279.043 198.095 278.998 198.084 278.956 198.064C278.941 198.058 278.927 198.048 278.917 198.035C278.908 198.021 278.902 198.005 278.902 197.989V188.979H279.283Z" fill="#37474F"/>
<path d="M281.52 187.68V196.69C281.52 196.706 281.514 196.722 281.504 196.736C281.495 196.749 281.481 196.759 281.466 196.765C281.425 196.788 281.38 196.8 281.333 196.8C281.286 196.8 281.241 196.788 281.2 196.765C281.16 196.765 281.139 196.717 281.139 196.69V187.68H281.52Z" fill="#37474F"/>
<path d="M283.818 186.354V195.364C283.817 195.381 283.811 195.397 283.802 195.412C283.792 195.426 283.779 195.438 283.764 195.446C283.721 195.466 283.675 195.476 283.628 195.476C283.581 195.476 283.534 195.466 283.492 195.446C283.477 195.438 283.464 195.426 283.454 195.412C283.445 195.397 283.439 195.381 283.438 195.364V186.354H283.818Z" fill="#37474F"/>
<path d="M258.672 201.09C258.615 201.09 258.559 201.076 258.509 201.049L254.32 198.655C254.247 198.611 254.194 198.54 254.172 198.458C254.15 198.375 254.162 198.287 254.204 198.213C254.224 198.176 254.251 198.143 254.284 198.116C254.318 198.09 254.356 198.071 254.397 198.06C254.438 198.049 254.48 198.047 254.522 198.053C254.564 198.06 254.604 198.075 254.64 198.098L258.72 200.396L284.24 185.64L278.263 182.24C278.198 182.193 278.153 182.123 278.136 182.045C278.119 181.967 278.131 181.885 278.171 181.815C278.21 181.745 278.274 181.693 278.35 181.667C278.426 181.641 278.509 181.644 278.582 181.676L285.049 185.361C285.097 185.39 285.137 185.431 285.164 185.48C285.191 185.529 285.206 185.584 285.206 185.64C285.206 185.696 285.191 185.751 285.164 185.8C285.137 185.849 285.097 185.89 285.049 185.919L258.794 201.076C258.755 201.089 258.713 201.093 258.672 201.09V201.09Z" fill="#455A64"/>
<path d="M205.652 265.86L149.158 233.26V205.163L205.652 237.762V265.86Z" fill="#F0F0F0"/>
<path d="M205.652 237.762V245.426L149.158 212.826V205.163L205.652 237.762Z" fill="#E0E0E0"/>
<path d="M205.652 265.86L241.488 245.106V209.596L205.652 237.762V265.86Z" fill="#FAFAFA"/>
<path d="M209.114 263.867V243.889L238.027 227.134V247.105L209.114 263.867Z" fill="#455A64"/>
<path d="M238.027 227.134L237.701 227.317V246.915L238.027 247.098V227.134Z" fill="#263238"/>
<path d="M237.694 246.922L209.114 263.493V263.867L238.027 247.105L237.694 246.922Z" fill="#37474F"/>
<path d="M204.959 241.359L243.216 210.596V208.597L204.959 239.36V241.359Z" fill="#37474F"/>
<path d="M204.959 241.359L146.73 207.76V205.761L204.959 239.36V241.359Z" fill="#263238"/>
<path d="M184.987 174.998L243.216 208.597L204.959 239.36L146.73 205.761L184.987 174.998Z" fill="#455A64"/>
<path d="M171.53 223.645L156.849 215.172V230.765L171.53 239.244V223.645Z" fill="#263238"/>
<path d="M157.753 230.241V215.689L171.53 223.645V238.197L157.753 230.241Z" fill="#FAFAFA"/>
<path d="M157.753 215.689V219.082L171.53 227.038V223.645L157.753 215.689Z" fill="#F0F0F0"/>
<path d="M156.849 230.765L157.753 230.241L171.53 238.197V239.244L156.849 230.765Z" fill="#37474F"/>
<path d="M156.849 222.965L157.753 222.442L171.53 230.398V231.445L156.849 222.965Z" fill="#37474F"/>
<path d="M163.887 234.831L164.791 235.348V219.756L163.887 219.232V234.831Z" fill="#37474F"/>
<path d="M197.962 238.904L183.274 230.432V246.024L197.962 254.504V238.904Z" fill="#263238"/>
<path d="M184.178 245.5V230.948L197.962 238.904V253.456L184.178 245.5Z" fill="#FAFAFA"/>
<path d="M184.178 230.948V234.342L197.962 242.298V238.904L184.178 230.948Z" fill="#F0F0F0"/>
<path d="M183.274 246.024L184.178 245.5L197.962 253.456V254.504L183.274 246.024Z" fill="#37474F"/>
<path d="M183.274 238.224L184.178 237.708L197.962 245.657V246.704L183.274 238.224Z" fill="#37474F"/>
<path d="M190.312 250.09L191.216 250.607V235.015L190.312 234.491V250.09Z" fill="#37474F"/>
<path d="M254.782 243.399L276.726 255.979L288.171 249.363L266.308 236.742L256.442 242.44" fill="#F0F0F0"/>
<path d="M187.041 273.448V266.057L186 263.894L184.933 264.839V272.231L187.041 273.448Z" fill="#734EEC"/>
<path d="M187.041 266.057L187.571 265.757V273.142L187.041 273.448V266.057Z" fill="#E0E0E0"/>
<path d="M186 263.894L186.524 263.582L187.571 265.758L187.041 266.057L186 263.894Z" fill="#734EEC"/>
<path d="M181.648 270.334V262.942L180.608 260.78L179.54 261.725V269.117L181.648 270.334Z" fill="#734EEC"/>
<path d="M181.648 262.942L182.179 262.643V270.028L181.648 270.334V262.942Z" fill="#E0E0E0"/>
<path d="M180.608 260.78L181.132 260.467L182.179 262.643L181.648 262.942L180.608 260.78Z" fill="#734EEC"/>
<path d="M176.256 267.219V259.835L175.209 257.672L174.148 258.611V266.002L176.256 267.219Z" fill="#734EEC"/>
<path d="M176.256 259.835L176.786 259.529V266.913L176.256 267.219V259.835Z" fill="#E0E0E0"/>
<path d="M175.209 257.672L175.739 257.353L176.786 259.529L176.256 259.835L175.209 257.672Z" fill="#734EEC"/>
<path d="M170.864 264.105V256.72L169.816 254.558L168.749 255.496V262.888L170.864 264.105Z" fill="#734EEC"/>
<path d="M170.864 256.72L171.387 256.414V263.799L170.864 264.105V256.72Z" fill="#E0E0E0"/>
<path d="M169.816 254.558L170.347 254.238L171.387 256.414L170.864 256.72L169.816 254.558Z" fill="#734EEC"/>
<path d="M165.471 260.991V253.606L164.424 251.443L163.356 252.389V259.773L165.471 260.991Z" fill="#734EEC"/>
<path d="M165.471 253.606L165.995 253.3V260.692L165.471 260.991V253.606Z" fill="#E0E0E0"/>
<path d="M164.424 251.444L164.948 251.124L165.995 253.3L165.471 253.606L164.424 251.444Z" fill="#734EEC"/>
<path d="M160.072 257.876V250.491L159.031 248.329L157.964 249.274V256.659L160.072 257.876Z" fill="#734EEC"/>
<path d="M160.072 250.492L160.602 250.186V257.577L160.072 257.876V250.492Z" fill="#E0E0E0"/>
<path d="M159.031 248.329L159.555 248.01L160.602 250.186L160.072 250.492L159.031 248.329Z" fill="#734EEC"/>
<path d="M154.68 254.762V247.377L153.639 245.215L152.572 246.16V253.545L154.68 254.762Z" fill="#734EEC"/>
<path d="M154.68 247.377L155.21 247.071V254.463L154.68 254.762V247.377Z" fill="#E0E0E0"/>
<path d="M153.639 245.215L154.163 244.895L155.21 247.071L154.68 247.377L153.639 245.215Z" fill="#734EEC"/>
<path d="M149.287 251.654V244.263L148.24 242.1L147.179 243.046V250.43L149.287 251.654Z" fill="#734EEC"/>
<path d="M149.287 244.263L149.811 243.957V251.348L149.287 251.654V244.263Z" fill="#E0E0E0"/>
<path d="M148.24 242.1L148.77 241.787L149.811 243.957L149.287 244.263L148.24 242.1Z" fill="#734EEC"/>
<path d="M143.895 248.54V241.148L142.848 238.986L141.78 239.931V247.316L143.895 248.54Z" fill="#734EEC"/>
<path d="M143.895 241.148L144.418 240.842V248.234L143.895 248.54V241.148Z" fill="#E0E0E0"/>
<path d="M142.848 238.986L143.378 238.673L144.418 240.842L143.895 241.148L142.848 238.986Z" fill="#734EEC"/>
<path d="M138.502 245.425V238.034L137.455 235.871L136.388 236.817V244.208L138.502 245.425Z" fill="#734EEC"/>
<path d="M138.502 238.034L139.026 237.735V245.119L138.502 245.425V238.034Z" fill="#E0E0E0"/>
<path d="M137.455 235.872L137.979 235.559L139.026 237.735L138.502 238.034L137.455 235.872Z" fill="white"/>
<path d="M189.271 268.722L134.334 237.007V237.884L189.271 269.599V268.722Z" fill="#734EEC"/>
<path d="M189.271 268.722L189.625 268.518V269.396L189.271 269.6V268.722Z" fill="#E0E0E0"/>
<path d="M134.334 237.007L189.271 268.722L189.625 268.518L134.688 236.796L134.334 237.007Z" fill="#734EEC"/>
<path d="M189.271 271.742L134.334 240.02V240.904L189.271 272.619V271.742Z" fill="#734EEC"/>
<path d="M189.271 271.741L189.625 271.537V272.415L189.271 272.619V271.741Z" fill="#E0E0E0"/>
<path d="M134.334 240.02L189.271 271.742L189.625 271.538L134.688 239.816L134.334 240.02Z" fill="#734EEC"/>
<path d="M312.79 210.272L308.212 219.295L308.952 219.671L313.53 210.647L312.79 210.272Z" fill="#263238"/>
<path d="M304.306 209.559L303.601 209.996L308.068 217.212L308.773 216.775L304.306 209.559Z" fill="#263238"/>
<path d="M309.284 208.719V230.479C309.278 230.54 309.256 230.599 309.22 230.649C309.185 230.699 309.136 230.739 309.08 230.765C308.929 230.842 308.761 230.882 308.591 230.882C308.421 230.882 308.253 230.842 308.101 230.765C308.045 230.739 307.997 230.699 307.961 230.649C307.925 230.599 307.903 230.54 307.897 230.479V208.719H309.284Z" fill="#263238"/>
<path d="M315.622 212.051C321.199 212.051 325.72 207.53 325.72 201.953C325.72 196.376 321.199 191.855 315.622 191.855C310.045 191.855 305.524 196.376 305.524 201.953C305.524 207.53 310.045 212.051 315.622 212.051Z" fill="#734EEC"/>
<path opacity="0.2" d="M318.791 199.369C320.09 195.289 321.477 193.664 320.6 193.168C318.927 192.22 317.019 191.77 315.099 191.87C313.179 191.97 311.328 192.616 309.763 193.732C308.197 194.848 306.983 196.387 306.262 198.169C305.542 199.951 305.345 201.902 305.695 203.792C306.045 205.683 306.927 207.434 308.237 208.84C309.548 210.246 311.233 211.249 313.094 211.731C314.955 212.212 316.914 212.153 318.743 211.559C320.571 210.965 322.192 209.862 323.415 208.379C320.423 209.25 317.098 204.68 318.791 199.369Z" fill="black"/>
<path d="M299.717 211.908C303.638 211.908 306.816 208.73 306.816 204.809C306.816 200.888 303.638 197.71 299.717 197.71C295.796 197.71 292.618 200.888 292.618 204.809C292.618 208.73 295.796 211.908 299.717 211.908Z" fill="#734EEC"/>
<path opacity="0.2" d="M299.717 197.717C298.226 197.723 296.774 198.199 295.569 199.077C295.378 203.415 299.057 207.645 298.03 209.066C297.004 210.487 294.467 209.61 293.583 208.386C294.209 209.464 295.107 210.358 296.188 210.979C297.269 211.6 298.494 211.925 299.74 211.922C300.987 211.919 302.21 211.588 303.288 210.962C304.366 210.336 305.26 209.438 305.881 208.357C306.501 207.276 306.826 206.051 306.823 204.804C306.819 203.558 306.488 202.334 305.862 201.257C305.236 200.179 304.337 199.285 303.256 198.665C302.175 198.045 300.95 197.72 299.703 197.724L299.717 197.717Z" fill="black"/>
<path d="M321.245 200.14C322.897 193.145 318.564 186.135 311.568 184.484C304.572 182.832 297.562 187.165 295.911 194.161C294.26 201.157 298.593 208.167 305.589 209.818C312.584 211.469 319.594 207.136 321.245 200.14Z" fill="#734EEC"/>
<path opacity="0.1" d="M321.266 200.131C320.776 202.238 319.768 204.19 318.333 205.81C316.899 207.43 315.083 208.666 313.051 209.408C311.018 210.15 308.833 210.373 306.692 210.058C304.551 209.742 302.523 208.898 300.791 207.602C299.059 206.305 297.677 204.597 296.771 202.633C295.865 200.668 295.462 198.508 295.601 196.349C295.739 194.19 296.414 192.099 297.563 190.266C298.713 188.433 300.302 186.915 302.185 185.851C301.059 186.494 300.033 187.298 299.139 188.238C298.484 191.024 298.765 193.948 299.94 196.558C301.114 199.167 303.116 201.317 305.636 202.675C308.155 204.032 311.052 204.521 313.878 204.066C316.703 203.611 319.3 202.238 321.266 200.158V200.131Z" fill="black"/>
<path d="M31.7327 188.578L27.1548 197.602L27.8946 197.977L32.4725 188.954L31.7327 188.578Z" fill="#263238"/>
<path d="M23.2486 187.866L22.5432 188.302L27.0101 195.518L27.7155 195.081L23.2486 187.866Z" fill="#263238"/>
<path d="M28.2268 187.026V208.785C28.2206 208.847 28.1985 208.905 28.1627 208.955C28.1269 209.005 28.0787 209.045 28.0228 209.071C27.8711 209.148 27.7033 209.188 27.5332 209.188C27.363 209.188 27.1953 209.148 27.0436 209.071C26.9877 209.045 26.9394 209.005 26.9037 208.955C26.8679 208.905 26.8458 208.847 26.8396 208.785V187.026H28.2268Z" fill="#263238"/>
<path d="M34.5646 190.357C40.1415 190.357 44.6626 185.836 44.6626 180.259C44.6626 174.683 40.1415 170.161 34.5646 170.161C28.9876 170.161 24.4666 174.683 24.4666 180.259C24.4666 185.836 28.9876 190.357 34.5646 190.357Z" fill="#734EEC"/>
<path opacity="0.2" d="M37.7332 177.676C39.032 173.596 40.4193 171.97 39.5421 171.474C37.8693 170.527 35.961 170.077 34.0413 170.177C32.1216 170.277 30.2704 170.923 28.7051 172.038C27.1398 173.154 25.9255 174.694 25.2049 176.476C24.4843 178.258 24.2873 180.209 24.6371 182.099C24.9869 183.989 25.869 185.74 27.1797 187.146C28.4903 188.552 30.1751 189.555 32.036 190.037C33.897 190.519 35.8568 190.459 37.6851 189.865C39.5134 189.272 41.1343 188.169 42.3572 186.686C39.3652 187.556 36.04 182.986 37.7332 177.676Z" fill="black"/>
<path d="M18.6593 190.215C22.58 190.215 25.7585 187.036 25.7585 183.116C25.7585 179.195 22.58 176.016 18.6593 176.016C14.7385 176.016 11.5601 179.195 11.5601 183.116C11.5601 187.036 14.7385 190.215 18.6593 190.215Z" fill="#734EEC"/>
<path opacity="0.2" d="M18.6592 176.023C17.1681 176.03 15.7168 176.505 14.5112 177.383C14.3208 181.721 17.9996 185.951 16.9728 187.372C15.946 188.793 13.4096 187.916 12.5256 186.692C13.1512 187.77 14.0496 188.665 15.1304 189.285C16.2112 189.906 17.4363 190.231 18.6827 190.228C19.9291 190.225 21.1527 189.894 22.2305 189.268C23.3084 188.643 24.2024 187.744 24.8229 186.663C25.4433 185.582 25.7683 184.357 25.765 183.111C25.7618 181.864 25.4304 180.641 24.8044 179.563C24.1783 178.485 23.2795 177.591 22.1984 176.971C21.1173 176.351 19.892 176.026 18.6456 176.03L18.6592 176.023Z" fill="black"/>
<path d="M40.1878 178.447C41.839 171.451 37.5063 164.441 30.5104 162.79C23.5145 161.139 16.5047 165.471 14.8535 172.467C13.2023 179.463 17.5351 186.473 24.5309 188.124C31.5268 189.775 38.5366 185.443 40.1878 178.447Z" fill="#734EEC"/>
<path opacity="0.1" d="M40.2084 178.437C39.7181 180.545 38.7101 182.496 37.2757 184.116C35.8412 185.736 34.0256 186.973 31.993 187.714C29.9604 188.456 27.775 188.679 25.6344 188.364C23.4938 188.048 21.4657 187.204 19.7334 185.908C18.0011 184.611 16.6194 182.904 15.7132 180.939C14.807 178.974 14.4049 176.814 14.5433 174.655C14.6817 172.496 15.3562 170.405 16.5059 168.572C17.6555 166.739 19.244 165.222 21.1276 164.157C20.0013 164.8 18.975 165.604 18.0812 166.544C17.4262 169.33 17.7077 172.254 18.8822 174.864C20.0566 177.474 22.0586 179.624 24.5781 180.981C27.0977 182.338 29.9944 182.827 32.8199 182.372C35.6454 181.918 38.2423 180.544 40.2084 178.464V178.437Z" fill="black"/>
<path opacity="0.1" d="M111.982 172.72C116.742 175.44 124.454 175.44 129.207 172.72C133.96 170 133.967 165.519 129.207 162.772C124.447 160.024 116.736 160.052 111.982 162.772C107.229 165.492 107.222 169.946 111.982 172.72Z" fill="black"/>
<path d="M129.2 166.743C129.2 165.478 128.363 164.206 126.691 163.241C123.331 161.303 117.898 161.303 114.539 163.241C112.866 164.206 112.03 165.478 112.037 166.743V167.96C112.037 169.211 112.9 170.462 114.553 171.414C117.912 173.352 123.352 173.352 126.704 171.414C128.357 170.462 129.2 169.211 129.22 167.96L129.2 166.743Z" fill="#37474F"/>
<path d="M114.519 163.241C111.166 165.172 111.166 168.314 114.519 170.252C117.871 172.19 123.318 172.19 126.67 170.252C130.023 168.314 130.023 165.172 126.67 163.241C123.318 161.31 117.878 161.303 114.519 163.241Z" fill="#455A64"/>
<path d="M123.005 166.24L121.72 87.38C121.708 87.2888 121.673 87.2022 121.619 87.1284C121.564 87.0546 121.491 86.996 121.407 86.9584C121.168 86.8344 120.902 86.7697 120.632 86.7697C120.362 86.7697 120.096 86.8344 119.857 86.9584C119.773 86.9972 119.7 87.0559 119.645 87.1294C119.589 87.2029 119.552 87.2889 119.537 87.38V87.38L118.218 166.26C118.223 166.479 118.289 166.692 118.409 166.875C118.529 167.058 118.699 167.203 118.898 167.294C119.425 167.56 120.008 167.698 120.598 167.698C121.189 167.698 121.771 167.56 122.298 167.294C122.504 167.204 122.681 167.057 122.806 166.87C122.931 166.683 123 166.464 123.005 166.24V166.24Z" fill="#734EEC"/>
<path opacity="0.7" d="M123.005 166.24L121.72 87.38C121.708 87.2888 121.673 87.2022 121.619 87.1284C121.564 87.0546 121.491 86.996 121.407 86.9584C121.168 86.8344 120.902 86.7697 120.632 86.7697C120.362 86.7697 120.096 86.8344 119.857 86.9584C119.773 86.9972 119.7 87.0559 119.645 87.1294C119.589 87.2029 119.552 87.2889 119.537 87.38V87.38L118.218 166.26C118.223 166.479 118.289 166.692 118.409 166.875C118.529 167.058 118.699 167.203 118.898 167.294C119.425 167.56 120.008 167.698 120.598 167.698C121.189 167.698 121.771 167.56 122.298 167.294C122.504 167.204 122.681 167.057 122.806 166.87C122.931 166.683 123 166.464 123.005 166.24V166.24Z" fill="white"/>
<path opacity="0.1" d="M120.591 86.7749C120.324 86.7693 120.059 86.8325 119.823 86.9585C119.739 86.9973 119.666 87.056 119.611 87.1295C119.555 87.203 119.518 87.289 119.503 87.3801V87.3801L118.184 166.26C118.189 166.479 118.255 166.692 118.375 166.875C118.495 167.058 118.665 167.203 118.864 167.294C119.174 167.46 119.51 167.575 119.857 167.634L120.591 86.7749Z" fill="black"/>
<path opacity="0.1" d="M121.373 86.9584C121.134 86.8344 120.868 86.7697 120.598 86.7697C120.328 86.7697 120.062 86.8344 119.823 86.9584C119.739 86.9972 119.666 87.0559 119.61 87.1294C119.555 87.2029 119.518 87.2889 119.503 87.38V87.38L119.442 90.6372C120.21 91.2492 121.026 91.8204 121.781 92.3304L121.72 87.38C121.705 87.2851 121.665 87.196 121.604 87.1218C121.543 87.0477 121.463 86.9913 121.373 86.9584V86.9584Z" fill="#734EEC"/>
<path opacity="0.1" d="M121.373 86.9584C121.134 86.8344 120.868 86.7697 120.598 86.7697C120.328 86.7697 120.062 86.8344 119.823 86.9584C119.739 86.9972 119.666 87.0559 119.61 87.1294C119.555 87.2029 119.518 87.2889 119.503 87.38V87.38L119.442 90.6372C120.21 91.2492 121.026 91.8204 121.781 92.3304L121.72 87.38C121.705 87.2851 121.665 87.196 121.604 87.1218C121.543 87.0477 121.463 86.9913 121.373 86.9584V86.9584Z" fill="black"/>
<path d="M116.022 83.0144C114.662 86.088 124.964 91.7864 124.964 91.7864L128.52 83.7012C128.52 83.7012 117.368 79.9408 116.015 83.0212" fill="#734EEC"/>
<path opacity="0.6" d="M116.022 83.0144C114.662 86.088 124.964 91.7864 124.964 91.7864L128.52 83.7012C128.52 83.7012 117.368 79.9408 116.015 83.0212" fill="white"/>
<path opacity="0.3" d="M116.552 82.3888C116.688 83.0688 117.701 83.9936 118.81 84.7144C120.244 85.6596 125.732 88.1144 125.732 88.1144L127.017 87.1284L128.527 83.7284C128.527 83.7284 119.156 80.5392 116.552 82.3888Z" fill="white"/>
<path d="M127.16 91.3308C128.001 90.6437 128.668 89.7675 129.107 88.7737C129.545 87.7799 129.742 86.6966 129.683 85.612C129.472 83.6264 127.99 82.9736 126.385 84.1568C125.543 84.8436 124.876 85.7197 124.437 86.7136C123.999 87.7075 123.802 88.791 123.862 89.8756C124.046 91.8544 125.528 92.48 127.16 91.3308Z" fill="#734EEC"/>
<path opacity="0.8" d="M127.16 91.3308C128.001 90.6437 128.668 89.7675 129.107 88.7737C129.545 87.7799 129.742 86.6966 129.683 85.612C129.472 83.6264 127.99 82.9736 126.385 84.1568C125.543 84.8436 124.876 85.7197 124.437 86.7136C123.999 87.7075 123.802 88.791 123.862 89.8756C124.046 91.8544 125.528 92.48 127.16 91.3308Z" fill="white"/>
<path d="M127.616 85.3468L128.602 85.782L128.262 86.5504C128.278 87.1386 128.165 87.7232 127.93 88.2627C127.695 88.8021 127.344 89.2832 126.902 89.6716L126.562 90.44L125.569 89.998C125.373 89.8882 125.21 89.7283 125.097 89.5347C124.983 89.3411 124.923 89.1208 124.923 88.8964C124.888 88.2725 125.001 87.6493 125.253 87.0775C125.505 86.5056 125.888 86.0012 126.371 85.6052C126.537 85.4555 126.74 85.3527 126.958 85.3073C127.177 85.2619 127.404 85.2755 127.616 85.3468V85.3468Z" fill="#37474F"/>
<path d="M129.254 86.8836C129.287 87.5079 129.172 88.1311 128.919 88.7028C128.667 89.2746 128.283 89.7788 127.799 90.1748C126.874 90.8548 126.024 90.474 125.895 89.3384C125.862 88.7132 125.977 88.089 126.23 87.5161C126.483 86.9433 126.866 86.4378 127.35 86.0404C128.275 85.3672 129.125 85.7412 129.254 86.8836Z" fill="#455A64"/>
<path d="M128.404 87.5024C128.422 87.812 128.366 88.1215 128.241 88.4052C128.115 88.689 127.924 88.9389 127.684 89.1344C127.228 89.4676 126.806 89.284 126.745 88.7196C126.729 88.4091 126.785 88.099 126.91 87.8143C127.036 87.5297 127.226 87.2784 127.466 87.0808C127.922 86.7476 128.343 86.9312 128.404 87.5024Z" fill="#263238"/>
<path opacity="0.05" d="M146.433 96.1259C154.256 77.7415 152.165 59.2501 141.764 54.8241C131.362 50.3981 116.588 61.7137 108.765 80.098C100.943 98.4824 103.034 116.974 113.435 121.4C123.837 125.826 138.611 114.51 146.433 96.1259Z" fill="#734EEC"/>
<path opacity="0.1" d="M127.602 88.1145L151.164 72.2228C150.858 66.7148 149.43 62.2744 147.166 59.1396L128.024 86.0269L127.602 88.1145Z" fill="#734EEC"/>
<path opacity="0.2" d="M147.165 59.16C144.017 54.7944 139.271 52.938 133.715 54.162L133.647 54.23C133.647 54.23 128.744 70.6316 127.602 77.7172C126.459 84.8028 128.023 86.0472 128.023 86.0472L147.165 59.16Z" fill="#734EEC"/>
<path opacity="0.1" d="M127.602 88.1144L114.335 69.7068C110.837 74.9209 108.141 80.6308 106.338 86.6456L126.194 89.3656L127.602 88.1144Z" fill="#734EEC"/>
<path opacity="0.2" d="M106.338 86.6456C103.897 94.8056 103.285 102.918 104.774 109.46L104.829 109.494C104.829 109.494 116.09 101.864 120.836 97.2536C125.582 92.6432 126.194 89.386 126.194 89.386L106.338 86.6456Z" fill="#734EEC"/>
<path opacity="0.1" d="M127.602 88.1144L117.307 122.4C121.149 122.665 125.283 121.264 129.309 118.544L128.588 88.9372L127.602 88.1144Z" fill="#734EEC"/>
<path opacity="0.2" d="M129.309 118.558C134.892 114.791 140.257 108.508 144.323 100.735V100.64C144.323 100.64 137.958 91.8681 134.354 89.4133C130.75 86.9585 128.574 88.9509 128.574 88.9509L129.309 118.558Z" fill="#734EEC"/>
<path d="M128.33 84.1501L133.627 55.0325C133.749 54.3525 133.205 54.2097 132.852 54.8353C131.566 57.1133 129.384 61.7645 127.378 69.7477C124.528 81.0561 125.066 85.4965 127.187 85.5441C127.656 85.5509 128.194 84.8777 128.33 84.1501Z" fill="#455A64"/>
<path d="M124.916 90.6237L105.339 108.834C104.883 109.263 104.856 110.133 105.339 110.072C106.984 109.841 110.276 108.766 115.716 104.53C123.413 98.5321 126.235 93.9149 125.997 90.9637C125.909 90.3177 125.406 90.1681 124.916 90.6237Z" fill="#455A64"/>
<path d="M129.547 89.6377L143.827 100.518C144.16 100.776 144.731 100.042 144.636 99.4772C143.93 95.9513 142.231 92.7004 139.74 90.1068C134.885 84.7892 131.532 84.9728 129.642 87.8764C129.2 88.536 129.2 89.3657 129.547 89.6377Z" fill="#455A64"/>
<path opacity="0.1" d="M53.5704 206.414C58.3304 209.134 66.0348 209.134 70.7948 206.414C75.5548 203.694 75.5548 199.213 70.7948 196.472C66.0348 193.732 58.3236 193.752 53.5704 196.472C48.8172 199.192 48.8104 203.667 53.5704 206.414Z" fill="black"/>
<path d="M70.7743 200.471C70.7743 199.199 69.9447 197.934 68.2719 196.962C64.9127 195.024 59.4727 195.024 56.1203 196.962C54.4475 197.934 53.6111 199.199 53.6111 200.471V201.654C53.6111 202.912 54.4747 204.156 56.1271 205.115C59.4795 207.053 64.9195 207.053 68.2787 205.115C69.9311 204.156 70.7743 202.912 70.7947 201.654L70.7743 200.471Z" fill="#37474F"/>
<path d="M56.1066 196.962C52.7542 198.9 52.7542 202.042 56.1066 203.98C59.459 205.918 64.899 205.911 68.2582 203.98C71.6174 202.048 71.6106 198.9 68.2582 196.962C64.9058 195.024 59.459 195.024 56.1066 196.962Z" fill="#455A64"/>
<path d="M64.5998 199.968L63.2874 121.088C63.2744 120.996 63.239 120.909 63.1845 120.834C63.1299 120.76 63.0578 120.7 62.9746 120.659C62.734 120.538 62.4686 120.475 62.1994 120.475C61.9302 120.475 61.6648 120.538 61.4242 120.659C61.3393 120.698 61.2656 120.758 61.2097 120.833C61.1539 120.907 61.1177 120.995 61.1046 121.088V121.088L59.7854 199.968C59.7896 200.186 59.8558 200.398 59.9762 200.58C60.0967 200.762 60.2663 200.905 60.4654 200.994C60.9929 201.259 61.5751 201.397 62.1654 201.397C62.7557 201.397 63.3379 201.259 63.8654 200.994C64.0742 200.913 64.2547 200.772 64.3851 200.59C64.5155 200.408 64.5901 200.192 64.5998 199.968Z" fill="#734EEC"/>
<path opacity="0.7" d="M64.5998 199.968L63.2874 121.088C63.2744 120.996 63.239 120.909 63.1845 120.834C63.1299 120.76 63.0578 120.7 62.9746 120.659C62.734 120.538 62.4686 120.475 62.1994 120.475C61.9302 120.475 61.6648 120.538 61.4242 120.659C61.3393 120.698 61.2656 120.758 61.2097 120.833C61.1539 120.907 61.1177 120.995 61.1046 121.088V121.088L59.7854 199.968C59.7896 200.186 59.8558 200.398 59.9762 200.58C60.0967 200.762 60.2663 200.905 60.4654 200.994C60.9929 201.259 61.5751 201.397 62.1654 201.397C62.7557 201.397 63.3379 201.259 63.8654 200.994C64.0742 200.913 64.2547 200.772 64.3851 200.59C64.5155 200.408 64.5901 200.192 64.5998 199.968Z" fill="white"/>
<path opacity="0.1" d="M62.1792 120.496C61.9115 120.49 61.647 120.554 61.4108 120.68C61.3259 120.718 61.2521 120.778 61.1963 120.853C61.1404 120.928 61.1043 121.015 61.0912 121.108V121.108L59.772 199.988C59.7762 200.206 59.8424 200.418 59.9628 200.6C60.0832 200.782 60.2529 200.926 60.452 201.015C60.762 201.187 61.1006 201.303 61.4516 201.355L62.1792 120.496Z" fill="black"/>
<path opacity="0.1" d="M62.961 120.68C62.7205 120.559 62.455 120.496 62.1858 120.496C61.9166 120.496 61.6512 120.559 61.4106 120.68C61.3257 120.719 61.252 120.778 61.1961 120.853C61.1403 120.928 61.1042 121.016 61.091 121.108V121.108L61.0366 124.365C61.805 124.97 62.621 125.548 63.3758 126.058L63.2874 121.108C63.273 121.015 63.2356 120.927 63.1786 120.852C63.1216 120.778 63.0468 120.718 62.961 120.68V120.68Z" fill="#734EEC"/>
<path opacity="0.1" d="M62.961 120.68C62.7205 120.559 62.455 120.496 62.1858 120.496C61.9166 120.496 61.6512 120.559 61.4106 120.68C61.3257 120.719 61.252 120.778 61.1961 120.853C61.1403 120.928 61.1042 121.016 61.091 121.108V121.108L61.0366 124.365C61.805 124.97 62.621 125.548 63.3758 126.058L63.2874 121.108C63.273 121.015 63.2356 120.927 63.1786 120.852C63.1216 120.778 63.0468 120.718 62.961 120.68V120.68Z" fill="black"/>
<path d="M57.6096 116.742C56.2496 119.809 66.5448 125.514 66.5448 125.514L70.1148 117.422C70.1148 117.422 58.9628 113.669 57.6096 116.742Z" fill="#734EEC"/>
<path opacity="0.6" d="M57.6096 116.742C56.2496 119.809 66.5448 125.514 66.5448 125.514L70.1148 117.422C70.1148 117.422 58.9628 113.669 57.6096 116.742Z" fill="white"/>
<path opacity="0.3" d="M58.1399 116.117C58.2691 116.797 59.2891 117.715 60.3907 118.442C61.8323 119.388 67.3199 121.842 67.3199 121.842L68.6051 120.856L70.1147 117.456C70.1147 117.456 60.7375 114.24 58.1399 116.117Z" fill="white"/>
<path d="M68.7207 125.059C69.5625 124.371 70.2298 123.493 70.6682 122.498C71.1066 121.503 71.3037 120.419 71.2435 119.333C71.0327 117.354 69.5503 116.702 67.9455 117.878C67.1047 118.566 66.4376 119.442 65.9982 120.435C65.5587 121.429 65.3593 122.512 65.4159 123.597C65.6335 125.582 67.1159 126.235 68.7207 125.059Z" fill="#734EEC"/>
<path opacity="0.8" d="M68.7207 125.059C69.5625 124.371 70.2298 123.493 70.6682 122.498C71.1066 121.503 71.3037 120.419 71.2435 119.333C71.0327 117.354 69.5503 116.702 67.9455 117.878C67.1047 118.566 66.4376 119.442 65.9982 120.435C65.5587 121.429 65.3593 122.512 65.4159 123.597C65.6335 125.582 67.1159 126.235 68.7207 125.059Z" fill="white"/>
<path d="M69.1967 119.068L70.1895 119.503L69.8495 120.272C69.8665 120.86 69.7534 121.445 69.5183 121.984C69.2832 122.524 68.9319 123.005 68.4895 123.393L68.1563 124.161L67.1431 123.76C66.9469 123.651 66.7835 123.491 66.6699 123.297C66.5563 123.104 66.4966 122.883 66.4971 122.658C66.4609 122.034 66.5734 121.411 66.8252 120.838C67.077 120.266 67.4609 119.762 67.9455 119.367C68.1086 119.211 68.3105 119.1 68.5305 119.048C68.7504 118.995 68.9804 119.002 69.1967 119.068Z" fill="#37474F"/>
<path d="M70.8355 120.605C70.8668 121.231 70.7494 121.856 70.4929 122.428C70.2365 123 69.8482 123.503 69.3599 123.896C68.4351 124.576 67.5783 124.202 67.4559 123.06C67.4239 122.435 67.5389 121.812 67.7916 121.241C68.0444 120.669 68.4278 120.165 68.9111 119.768C69.8631 119.088 70.7199 119.469 70.8355 120.605Z" fill="#455A64"/>
<path d="M69.9924 121.224C70.009 121.534 69.9524 121.844 69.8272 122.129C69.702 122.413 69.5117 122.665 69.2716 122.862C68.816 123.196 68.3876 123.012 68.3264 122.441C68.3103 122.131 68.3672 121.822 68.4924 121.539C68.6176 121.255 68.8076 121.005 69.0472 120.809C69.5096 120.469 69.9312 120.659 69.9924 121.224Z" fill="#263238"/>
<path opacity="0.05" d="M88.02 129.846C95.8426 111.461 93.7519 92.9701 83.3502 88.5441C72.9485 84.1181 58.1748 95.4336 50.3521 113.818C42.5295 132.202 44.6202 150.694 55.0219 155.12C65.4236 159.546 80.1973 148.23 88.02 129.846Z" fill="#734EEC"/>
<path opacity="0.1" d="M69.1899 121.836L92.7519 105.944C92.4459 100.443 91.0179 96.0024 88.7535 92.8608L69.6115 119.755L69.1899 121.836Z" fill="#734EEC"/>
<path opacity="0.2" d="M88.7536 92.8608C85.6052 88.502 80.852 86.6388 75.2964 87.8696L75.2352 87.9376C75.2352 87.9376 70.3324 104.332 69.19 111.418C68.0476 118.504 69.6116 119.755 69.6116 119.755L88.7536 92.8608Z" fill="#734EEC"/>
<path opacity="0.1" d="M69.1898 121.836L55.923 103.435C52.4258 108.646 49.728 114.351 47.9194 120.36L67.7822 123.08L69.1898 121.836Z" fill="#734EEC"/>
<path opacity="0.2" d="M47.9196 120.36C45.4852 128.52 44.8664 136.632 46.3624 143.174L46.4168 143.208C46.4168 143.208 57.6776 135.585 62.424 130.968C67.1704 126.351 67.7824 123.08 67.7824 123.08L47.9196 120.36Z" fill="#734EEC"/>
<path opacity="0.1" d="M69.19 121.836L58.8948 156.135C62.7368 156.407 66.8712 154.999 70.89 152.286L70.21 122.672L69.19 121.836Z" fill="#734EEC"/>
<path opacity="0.2" d="M70.89 152.32C76.4796 148.546 81.8448 142.27 85.9044 134.497V134.395C85.9044 134.395 79.56 125.596 75.956 123.141C72.352 120.686 70.176 122.672 70.176 122.672L70.89 152.32Z" fill="#734EEC"/>
<path d="M69.9106 117.871L75.2146 88.7537C75.337 88.0737 74.793 87.9309 74.4394 88.5565C73.1542 90.8413 70.9714 95.4857 68.9586 103.476C66.1162 114.784 66.6534 119.224 68.775 119.265C69.2374 119.279 69.7814 118.606 69.9106 117.871Z" fill="#455A64"/>
<path d="M66.497 124.352L46.9198 142.562C46.4574 142.984 46.437 143.861 46.8858 143.793C48.5314 143.562 51.8226 142.487 57.2626 138.251C64.9602 132.26 67.7754 127.643 67.5442 124.692C67.4966 124.046 66.9934 123.896 66.497 124.352Z" fill="#455A64"/>
<path d="M71.1346 123.366L85.4146 134.246C85.7478 134.497 86.319 133.77 86.2238 133.205C85.5193 129.677 83.8205 126.423 81.3278 123.828C76.4658 118.517 73.1202 118.694 71.2298 121.604C70.8082 122.264 70.7742 123.08 71.1346 123.366Z" fill="#455A64"/>
<path d="M105.767 303C83.6549 303 65.7293 293.937 65.7293 282.758C65.7293 271.579 83.6549 262.516 105.767 262.516C127.879 262.516 145.805 271.579 145.805 282.758C145.805 293.937 127.879 303 105.767 303Z" fill="#E0E0E0"/>
<path opacity="0.2" d="M113.771 253.922C114.153 248.973 117.769 240.486 123.122 234.448C128.476 228.41 137.032 225.539 142.315 227.939C147.24 230.208 146.157 237.194 139.658 241.327C133.159 245.459 123.481 250.532 120.177 258.36L113.771 267.755V253.922Z" fill="#A745E3"/>
<path d="M113.772 262.814H113.709C113.645 262.805 113.584 262.783 113.528 262.748C113.472 262.714 113.423 262.668 113.384 262.614C113.345 262.56 113.317 262.497 113.3 262.431C113.284 262.365 113.28 262.296 113.289 262.229C115.759 242.828 134.546 230.884 140.18 229.771C140.244 229.758 140.309 229.759 140.372 229.773C140.435 229.787 140.495 229.815 140.548 229.853C140.601 229.892 140.647 229.941 140.682 229.999C140.717 230.056 140.741 230.12 140.753 230.187C140.765 230.254 140.764 230.323 140.751 230.39C140.737 230.457 140.711 230.52 140.675 230.577C140.638 230.633 140.592 230.681 140.538 230.718C140.483 230.755 140.423 230.781 140.359 230.793C134.905 231.89 116.663 243.488 114.263 262.369C114.244 262.493 114.185 262.606 114.095 262.687C114.005 262.769 113.89 262.814 113.772 262.814Z" fill="#FAFAFA"/>
<path d="M112.096 270.411C114.528 273.035 117.566 274.938 120.909 275.93C126.668 277.728 129.629 275.105 129.629 275.105C129.629 275.105 128.071 268.951 124.899 266.856C128.407 268.209 131.672 270.184 134.554 272.696C134.554 272.696 138.138 273.249 140.281 267.64C140.281 267.64 138.59 263.862 131.71 260.983C131.71 260.983 136.198 260.431 142.245 262.979C142.689 263.243 145.619 256.018 146.648 252.644C147.676 249.27 146.359 249.122 143.905 248.049C141.45 246.977 132.824 245.327 131.039 246.589C129.255 247.851 127.829 252.817 127.829 252.817C127.829 252.817 126.66 249.732 127.338 247.225C125.621 246.439 123.718 246.226 121.883 246.614C118.891 247.274 118.283 249.328 117.605 251.44C116.927 253.551 116.047 257.841 116.959 259.952C116.959 259.952 114.8 257.222 116.39 250.681C114.439 251.526 112.732 252.9 111.442 254.665C109.501 257.461 108.925 265.396 112.096 270.411Z" fill="#734EEC"/>
<path d="M112.096 270.824C112.161 270.825 112.226 270.809 112.283 270.775C112.341 270.742 112.389 270.693 112.423 270.634C118.447 260.868 137.554 251.192 144.029 250.763C144.08 250.76 144.131 250.746 144.177 250.722C144.223 250.699 144.264 250.666 144.298 250.625C144.332 250.584 144.358 250.537 144.375 250.486C144.392 250.434 144.399 250.38 144.396 250.326C144.392 250.272 144.379 250.219 144.357 250.17C144.335 250.121 144.303 250.078 144.265 250.042C144.227 250.006 144.182 249.978 144.133 249.96C144.085 249.943 144.034 249.935 143.983 249.938C137.382 250.376 117.909 260.233 111.776 270.189C111.72 270.28 111.7 270.39 111.72 270.497C111.741 270.604 111.8 270.697 111.885 270.758C111.949 270.798 112.022 270.821 112.096 270.824V270.824Z" fill="#FAFAFA"/>
<path d="M164.855 138.934C164.494 139.311 164.086 139.703 163.74 140.042C163.232 140.526 162.201 141.303 161.678 141.788C161.524 141.934 160.908 142.327 160.862 142.496C161.166 141.659 161.368 140.788 161.462 139.903C161.516 139.504 161.417 139.1 161.186 138.771C160.955 138.441 160.609 138.211 160.216 138.126C159.869 138.087 159.846 138.957 159.123 140.165C158.2 141.703 157.007 142.473 156.453 144.381C156.131 145.223 155.49 145.903 154.668 146.274L140.311 153.407C140.311 153.407 129.816 149.513 124.376 147.382C118.059 144.904 110.826 142.55 109.61 143.843L121.683 154.753C121.683 154.753 130.87 159.731 138.025 162.578C140.434 163.54 141.773 163.194 143.719 161.886C147.943 159.418 152.028 156.719 155.953 153.799C158.457 151.968 161.065 150.283 163.763 148.751C165.848 147.582 168.279 146.012 169.257 143.719C169.545 143.099 169.698 142.424 169.706 141.739C169.714 141.055 169.577 140.376 169.303 139.749C168.986 139.279 168.752 138.759 168.61 138.21C168.603 137.876 168.618 137.542 168.656 137.21C168.674 137.044 168.651 136.876 168.59 136.72C168.528 136.565 168.429 136.426 168.302 136.318C168.16 136.23 167.996 136.184 167.829 136.184C167.662 136.184 167.499 136.23 167.356 136.318C167.076 136.5 166.831 136.732 166.633 137.002C166.063 137.649 165.471 138.303 164.855 138.934Z" fill="#FFBDA7"/>
<path d="M109.833 143.258C115.219 142.489 117.974 144.127 121.683 145.666C126.099 147.49 140.318 153.007 140.318 153.007L149.49 148.682C149.49 148.682 151.598 153.445 153.868 155.384C153.868 155.384 145.627 161.224 143.334 162.648C141.042 164.071 140.911 163.994 137.31 162.817C133.709 161.64 117.435 157.485 117.435 157.485L109.833 143.258Z" fill="#37474F"/>
<path d="M149.49 148.682L154.33 146.443C154.33 146.443 156.399 150.544 158.177 152.299L153.868 155.376C152.776 154.473 151.858 153.378 151.16 152.145C150.45 151.071 149.888 149.906 149.49 148.682V148.682Z" fill="#263238"/>
<path d="M85.681 274.999C87.5508 276.077 89.659 276.054 91.9519 275.184L93.4907 262.873L86.0427 263.643L85.681 274.999Z" fill="#FFBDA7"/>
<path d="M108.656 268.305C110.195 271.822 113.088 270.945 116.427 268.821L116.22 256.41L108.341 256.172L108.656 268.305Z" fill="#FFBDA7"/>
<path d="M99.1925 287.08C99.3611 287.713 99.3123 288.385 99.054 288.988C98.7924 289.365 97.3382 290.527 94.7606 290.642C92.2984 290.75 90.144 290.35 88.6975 289.388C88.081 289.048 87.559 288.56 87.1787 287.967C86.7985 287.375 86.5721 286.697 86.52 285.995C86.4277 284.594 86.6201 283.248 85.9891 282.148C85.3582 281.047 84.4503 279.978 84.2502 279.439C84.0231 278.498 84.047 277.514 84.3195 276.585L99.1925 287.08Z" fill="#263238"/>
<path d="M92.8445 274.699C92.8709 275.22 92.9561 275.736 93.0984 276.238C93.6453 277.895 94.4531 279.453 95.4914 280.855C96.2146 281.755 97.1149 282.509 97.8766 283.386C98.6934 284.216 99.1965 285.304 99.3 286.464C99.3462 288.395 97.2379 288.988 95.6221 289.226C93.8715 289.478 92.0866 289.336 90.3977 288.811C89.5082 288.552 88.7124 288.042 88.1063 287.342C87.5001 286.642 87.1095 285.781 86.9815 284.863C86.9122 284.325 86.9815 283.779 86.9122 283.24C86.7354 282.003 86.2543 280.829 85.5119 279.824C85.0831 279.24 84.7169 278.614 84.4193 277.954C83.9499 276.746 84.4193 275.423 84.7501 274.238C85.0579 273.222 85.4118 272.068 85.7658 272.176C85.7422 272.386 85.7659 272.599 85.835 272.799C85.9484 272.992 86.0363 273.199 86.0966 273.414C86.1648 273.678 86.2549 273.935 86.3659 274.184C86.5373 274.584 86.8273 274.923 87.1969 275.153L87.3354 272.976C87.3204 272.748 87.3858 272.522 87.5201 272.337C87.6933 272.186 87.9134 272.099 88.1433 272.091C89.5011 271.806 90.8946 271.731 92.2751 271.868C92.3792 271.872 92.4812 271.898 92.5751 271.943C92.669 271.988 92.7528 272.051 92.8214 272.129C92.8978 272.281 92.9247 272.454 92.8984 272.622C92.8599 273.307 92.8137 273.991 92.8445 274.699Z" fill="#455A64"/>
<path d="M94.7604 279.762C94.0602 279.208 92.4521 279.154 91.5673 279.216C90.6719 279.271 89.8044 279.549 89.0435 280.024C88.9319 280.1 88.7965 280.134 88.6623 280.118C88.528 280.102 88.4038 280.039 88.3126 279.939V279.939C88.2571 279.884 88.2146 279.817 88.188 279.744C88.1614 279.67 88.1514 279.591 88.1588 279.513C88.1661 279.435 88.1906 279.36 88.2305 279.293C88.2704 279.225 88.3247 279.168 88.3895 279.124C89.2282 278.547 90.2118 278.216 91.2287 278.17C93.3985 278.077 94.0217 278.47 94.0217 278.47C94.0217 278.47 94.9912 279.131 94.7604 279.762Z" fill="#F5F5F5"/>
<path d="M96.353 281.786C95.4682 281.232 93.6908 281.255 92.8137 281.324C91.9333 281.388 91.0847 281.679 90.3515 282.171C90.2407 282.248 90.1059 282.282 89.9717 282.268C89.8375 282.254 89.7128 282.192 89.6205 282.094V282.094C89.5651 282.038 89.5225 281.972 89.4959 281.898C89.4693 281.824 89.4593 281.746 89.4667 281.668C89.4741 281.59 89.4986 281.514 89.5385 281.447C89.5784 281.38 89.6327 281.322 89.6975 281.278C90.5508 280.667 91.5584 280.307 92.6059 280.239C94.7757 280.147 95.322 280.609 95.322 280.609C95.5717 280.714 95.7942 280.875 95.9728 281.079C96.1513 281.283 96.2813 281.525 96.353 281.786V281.786Z" fill="#F5F5F5"/>
<path d="M90.4362 276.069C91.3505 275.938 92.2831 276.044 93.1446 276.377C93.5216 276.608 93.7524 277.215 93.5062 277.362C92.7523 277.028 91.9273 276.888 91.1056 276.954C90.2916 277.013 89.4932 277.208 88.7435 277.531C88.5588 277.608 88.3357 277.716 88.1356 277.816C88.0744 277.848 88.0072 277.868 87.9381 277.873C87.8691 277.879 87.7996 277.87 87.734 277.848C87.6684 277.825 87.6081 277.79 87.5568 277.743C87.5054 277.697 87.4641 277.64 87.4354 277.577V277.577C87.3859 277.467 87.3798 277.343 87.4184 277.228C87.4569 277.114 87.5372 277.019 87.6432 276.962C88.5004 276.469 89.4525 276.165 90.4362 276.069V276.069Z" fill="#F5F5F5"/>
<path d="M129.108 276.846C129.282 277.415 129.23 278.03 128.962 278.562C128.708 279.054 126.038 280.455 122.514 280.101C119.897 279.838 117.398 278.881 115.273 277.331C113.958 276.4 112.557 276.184 110.811 276.038C109.064 275.892 106.787 274.938 106.433 274.115C106.252 273.375 106.295 272.598 106.556 271.883L129.108 276.846Z" fill="#263238"/>
<path d="M115.22 265.551L116.151 265.243C116.314 265.167 116.499 265.15 116.674 265.197C116.897 265.289 116.982 265.558 117.035 265.797C117.101 266.319 117.215 266.834 117.374 267.336C117.624 267.75 117.951 268.112 118.336 268.405C119.189 269.137 120.118 269.777 121.106 270.313C122.244 270.968 123.36 271.483 124.537 272.052C125.715 272.622 127.346 273.022 128.277 273.691C128.612 273.936 128.883 274.259 129.065 274.632C129.247 275.005 129.335 275.417 129.321 275.832C129.307 276.247 129.192 276.653 128.986 277.013C128.78 277.373 128.489 277.678 128.138 277.9C126.746 278.67 123.137 279.439 119.405 278.246C117.374 277.6 115.158 275.346 112.48 275.053C110.772 274.869 107.548 274.284 106.487 272.96C106.094 272.376 106.694 270.56 107.187 268.998C107.725 267.29 107.995 264.604 108.556 264.774C108.556 265.351 109.064 265.697 109.326 266.182C109.553 266.628 109.746 267.091 109.903 267.567C110.059 268.046 110.356 268.468 110.757 268.775C110.961 268.921 111.208 268.996 111.46 268.989C111.711 268.982 111.953 268.893 112.15 268.736C112.665 268.228 112.396 267.305 112.78 266.689C113.093 266.303 113.527 266.032 114.012 265.92L115.22 265.551Z" fill="#455A64"/>
<path d="M119.536 269.313C119.42 269.074 119.246 268.867 119.03 268.713C118.813 268.558 118.561 268.46 118.297 268.429C117.191 268.398 116.111 268.77 115.258 269.475C115.174 269.537 115.107 269.62 115.062 269.715C115.018 269.81 114.998 269.914 115.004 270.019C115.01 270.123 115.042 270.225 115.097 270.314C115.152 270.403 115.229 270.477 115.32 270.529C115.436 270.607 115.575 270.643 115.715 270.632C115.855 270.621 115.986 270.563 116.089 270.468C117.047 269.654 118.281 269.24 119.536 269.313V269.313Z" fill="#F5F5F5"/>
<path d="M121.914 270.768C121.75 270.524 121.53 270.323 121.274 270.181C121.017 270.039 120.73 269.961 120.436 269.952C119.236 269.966 118.072 270.362 117.112 271.083C117.033 271.145 116.969 271.225 116.927 271.316C116.885 271.408 116.866 271.508 116.871 271.609C116.876 271.71 116.906 271.807 116.957 271.894C117.009 271.981 117.08 272.054 117.166 272.106V272.106C117.275 272.171 117.401 272.2 117.526 272.189C117.652 272.178 117.771 272.127 117.866 272.045C118.402 271.543 119.044 271.167 119.745 270.946C120.445 270.725 121.186 270.664 121.914 270.768V270.768Z" fill="#F5F5F5"/>
<path d="M124.537 272.06C124.352 271.828 124.118 271.639 123.853 271.506C123.587 271.373 123.295 271.3 122.998 271.291C121.84 271.327 120.722 271.728 119.805 272.437C119.726 272.499 119.662 272.579 119.62 272.67C119.578 272.762 119.559 272.862 119.564 272.963C119.57 273.064 119.599 273.161 119.651 273.248C119.702 273.335 119.773 273.408 119.859 273.461V273.461C119.969 273.525 120.096 273.553 120.223 273.542C120.35 273.531 120.47 273.481 120.567 273.399C121.08 272.884 121.706 272.494 122.395 272.262C123.084 272.03 123.817 271.961 124.537 272.06V272.06Z" fill="#F5F5F5"/>
<path d="M88.5818 185.015C87.7355 198.495 86.3659 228.234 86.3659 228.234C86.1735 229.911 85.5503 233.935 85.2502 239.983C84.804 248.747 85.4965 268.09 85.4965 268.09C86.6382 268.694 87.8912 269.057 89.1785 269.159C90.4659 269.261 91.7605 269.099 92.983 268.683C92.983 268.683 97.9689 241.091 99.5616 232.519C100.962 224.956 103.693 210.714 103.693 210.714L104.971 229.142C104.726 232.854 104.827 236.581 105.271 240.275C105.771 244.269 108.179 261.627 108.179 261.627C110.943 262.415 113.868 262.436 116.643 261.688C116.643 261.688 117.412 233.366 117.597 229.688C117.805 225.487 118.682 182.337 118.682 182.337L88.5818 185.015Z" fill="#37474F"/>
<path d="M103.693 210.683L106.002 199.68C106.002 199.68 111.549 199.365 114.696 196.372C114.696 196.372 114.065 199.38 107.056 200.988L104.748 212.114L104.517 222.463L103.693 210.683Z" fill="#263238"/>
<path d="M91.1211 144.889C88.4743 145.358 88.2973 146.674 87.7202 149.298C87.1715 151.406 86.9432 153.585 87.0431 155.761L89.0205 171.296L88.3434 189.193C92.6061 193.809 109.657 195.348 118.974 188.523C118.974 188.523 118.867 159.123 118.443 154.407C117.674 146.159 113.95 143.235 108.441 143.25L99.0616 144.019L91.1211 144.889Z" fill="#734EEC"/>
<path d="M101.039 124.053C101.044 125.701 101.537 127.311 102.457 128.679C103.377 130.047 104.681 131.112 106.206 131.738C107.731 132.364 109.407 132.524 111.023 132.197C112.639 131.871 114.121 131.072 115.283 129.903C116.445 128.734 117.234 127.246 117.55 125.628C117.866 124.01 117.696 122.335 117.059 120.814C116.423 119.293 115.35 117.996 113.977 117.085C112.603 116.174 110.99 115.691 109.341 115.697C108.247 115.7 107.165 115.918 106.155 116.34C105.146 116.762 104.229 117.378 103.458 118.154C102.687 118.93 102.077 119.851 101.662 120.863C101.247 121.875 101.035 122.959 101.039 124.053V124.053Z" fill="#263238"/>
<path d="M98.423 125.684L96.6457 120.906C96.1727 120.849 95.693 120.903 95.2444 121.063C94.7958 121.223 94.3905 121.486 94.0604 121.829C92.9524 122.968 93.591 126.515 94.9837 129.993C94.9837 129.993 96.3533 136.333 96.8996 137.372C97.263 138.011 97.8577 138.488 98.5615 138.703L98.423 125.684Z" fill="#263238"/>
<path d="M98.2999 130.278C97.7844 130.586 97.0611 129.608 96.4302 128.954C95.7992 128.3 93.7372 127.416 92.7215 129.57C91.7059 131.724 93.6448 134.664 95.2606 135.164C98.046 136.033 98.4614 134.248 98.4614 134.248L98.7077 144.251C99.3273 145.595 100.271 146.765 101.454 147.656C102.637 148.546 104.023 149.129 105.486 149.352C110.426 150.006 109.395 145.943 107.795 143.966V140.888C109.036 141.084 110.295 141.143 111.549 141.065C113.596 140.742 114.881 139.126 115.489 136.903C116.474 133.34 116.843 130.462 115.974 123.468C115.02 115.774 106.094 115.774 101.285 118.798C96.4763 121.822 98.2999 130.278 98.2999 130.278Z" fill="#FFBDA7"/>
<path d="M98.3461 130.955C97.5766 130.724 96.9534 129.416 96.4302 128.954C95.5453 128.185 96.6533 120.906 96.6533 120.906C96.4199 120.28 96.3749 119.6 96.524 118.949C96.673 118.298 97.0096 117.705 97.492 117.243C98.6923 115.912 100.701 115.758 104.14 115.204C105.833 114.935 107.833 114.797 109.526 114.489C111.263 114.217 112.948 113.677 114.52 112.888C114.802 112.704 115.137 112.617 115.474 112.642C115.605 112.675 115.727 112.736 115.831 112.823C115.935 112.91 116.018 113.019 116.074 113.142C116.181 113.384 116.229 113.648 116.212 113.912C116.205 114.196 116.158 114.479 116.074 114.75C116.02 114.912 115.689 115.397 115.758 115.52C115.935 115.866 117.251 115.281 117.52 115.197C117.583 115.178 117.65 115.178 117.713 115.197C117.758 115.228 117.795 115.271 117.82 115.32C118.005 115.766 118.087 116.248 118.06 116.73C118.034 117.212 117.899 117.682 117.666 118.105C116.591 119.944 114.922 121.363 112.934 122.129C110.895 122.968 108.677 123.278 106.487 123.03C105.55 122.92 104.629 122.706 103.74 122.391C103.566 122.72 103.365 123.034 103.14 123.33C102.879 123.626 102.579 123.885 102.247 124.099C101.92 124.322 101.559 124.491 101.178 124.599C100.785 124.707 100.408 124.653 100.193 125.076C100.073 125.355 100.018 125.658 100.031 125.961C100.031 126.854 99.9773 127.738 99.9542 128.623C99.9618 129.076 99.9022 129.527 99.7772 129.962C99.7098 130.177 99.5934 130.374 99.4372 130.537C99.2811 130.7 99.0893 130.824 98.877 130.901C98.7094 130.971 98.5244 130.99 98.3461 130.955V130.955Z" fill="#263238"/>
<path d="M107.748 140.934C107.748 140.934 103.17 140.026 101.593 139.187C100.656 138.695 99.8858 137.938 99.377 137.01C99.624 137.943 100.056 138.817 100.647 139.58C101.816 141.073 107.771 142.15 107.771 142.15L107.748 140.934Z" fill="#F0997A"/>
<path d="M107.071 128.893C107.065 129.072 107.007 129.246 106.902 129.393C106.798 129.539 106.653 129.652 106.485 129.716C106.318 129.781 106.135 129.795 105.959 129.756C105.784 129.717 105.623 129.628 105.498 129.498C105.373 129.369 105.289 129.206 105.256 129.029C105.223 128.853 105.243 128.67 105.313 128.505C105.383 128.339 105.501 128.198 105.65 128.099C105.8 127.999 105.976 127.946 106.156 127.946C106.278 127.948 106.399 127.974 106.511 128.023C106.623 128.072 106.725 128.142 106.81 128.23C106.895 128.318 106.962 128.421 107.006 128.535C107.051 128.649 107.073 128.77 107.071 128.893V128.893Z" fill="#263238"/>
<path d="M105.979 126.077L103.947 127.392C103.777 127.113 103.721 126.778 103.791 126.459C103.861 126.139 104.053 125.859 104.324 125.676C104.458 125.59 104.608 125.533 104.765 125.506C104.922 125.48 105.083 125.485 105.237 125.523C105.392 125.56 105.537 125.629 105.665 125.724C105.792 125.819 105.899 125.939 105.979 126.077V126.077Z" fill="#263238"/>
<path d="M105.548 134.463L108.772 135.841C108.68 136.059 108.545 136.257 108.375 136.423C108.206 136.59 108.005 136.72 107.784 136.807C107.563 136.895 107.328 136.937 107.09 136.933C106.853 136.928 106.619 136.876 106.402 136.779C106.189 136.689 105.997 136.556 105.837 136.389C105.678 136.221 105.554 136.023 105.474 135.806C105.394 135.589 105.359 135.358 105.372 135.127C105.385 134.896 105.445 134.67 105.548 134.463Z" fill="#F0997A"/>
<path d="M115.474 127.069L113.542 125.9C113.612 125.768 113.709 125.651 113.826 125.559C113.943 125.466 114.078 125.398 114.223 125.36C114.367 125.321 114.518 125.313 114.666 125.336C114.814 125.359 114.955 125.412 115.081 125.492C115.334 125.656 115.515 125.911 115.588 126.203C115.661 126.496 115.62 126.805 115.474 127.069V127.069Z" fill="#263238"/>
<path d="M114.712 128.608C114.716 128.73 114.696 128.853 114.652 128.967C114.608 129.082 114.542 129.186 114.458 129.275C114.373 129.364 114.272 129.435 114.16 129.484C114.047 129.534 113.927 129.56 113.804 129.562C113.556 129.556 113.32 129.452 113.147 129.274C112.974 129.095 112.879 128.856 112.881 128.608C112.881 128.365 112.977 128.132 113.149 127.96C113.321 127.789 113.553 127.692 113.796 127.692C114.039 127.692 114.272 127.789 114.444 127.96C114.615 128.132 114.712 128.365 114.712 128.608Z" fill="#263238"/>
<path d="M109.611 128.115L110.395 133.963L113.373 132.678L109.611 128.115Z" fill="#F0997A"/>
<path d="M103.04 191.301L102.909 193.894C102.897 194.118 102.807 194.331 102.653 194.494C102.5 194.658 102.293 194.761 102.07 194.787C99.0336 195.111 95.9632 194.719 93.1062 193.64C87.7202 191.632 87.6202 189.908 87.6202 189.908V186.4L103.04 191.301Z" fill="#263238"/>
<path d="M115.304 188.685V190.686C115.305 190.783 115.328 190.879 115.372 190.966C115.416 191.052 115.48 191.128 115.559 191.185C115.637 191.243 115.728 191.281 115.824 191.297C115.921 191.314 116.019 191.307 116.112 191.278C116.88 191.053 117.623 190.748 118.328 190.37C118.956 190.05 119.509 189.602 119.952 189.054L120.052 186.023L115.304 188.685Z" fill="#263238"/>
<path d="M120.052 186.023C118.928 187.839 115.304 188.685 115.304 188.685C115.304 188.685 115.389 187.377 115.304 180.221C115.22 173.066 114.958 159.739 113.388 153.784C112.501 150.503 111.093 147.386 109.218 144.551C109.047 144.292 108.82 144.076 108.553 143.917C108.287 143.758 107.988 143.662 107.679 143.635V143.289C113.065 143.204 114.327 143.75 116.612 146.628C118.898 149.506 119.359 154.93 119.629 161.063C119.89 166.979 121.606 181.537 120.052 186.023ZM102.978 170.357C103.409 186.831 103.224 189.955 103.024 191.301C103.024 191.301 91.4828 192.417 87.6357 186.4C86.3277 183.684 87.8127 177.405 88.1281 171.527L86.3507 151.429C86.2347 150.094 86.5329 148.756 87.2048 147.597C87.8767 146.438 88.8896 145.514 90.1056 144.951L98.6154 143.843C99.331 145.505 100.924 147.69 101.693 150.929C102.663 155.099 102.732 161.093 102.978 170.357Z" fill="#455A64"/>
<path d="M142.378 175.704L119.392 176.711L115.05 193.572L136.844 192.248L142.378 175.704Z" fill="#734EEC"/>
<path d="M149.105 162.884L140.749 179.869L137.553 177.681L149.105 162.884Z" fill="#734EEC"/>
<path d="M139.52 175.781L119.458 176.248L115.159 191.648L116.115 193.514L120.414 178.56L140.953 177.648L139.52 175.781Z" fill="#5D2FF3"/>
<path opacity="0.1" d="M142.565 175.781L119.514 176.781L115.159 193.514L137.016 192.2L142.565 175.781Z" fill="#0075FF"/>
<path opacity="0.15" d="M124.776 185.538C124.914 186.061 124.568 186.808 123.529 187.692C122.691 188.408 122.144 189.654 120.713 190.001C117.805 190.709 116.335 190.301 116.335 190.301L116.92 186.708L124.776 185.538Z" fill="black"/>
<path d="M118.197 178.959C116.574 179.044 114.081 179.606 112.688 179.829C111.966 179.986 111.222 180.025 110.488 179.944C109.897 179.882 109.312 179.769 108.741 179.606C106.74 178.69 90.7978 172.165 90.7978 172.165L93.5062 156.477C93.5062 156.477 94.1449 146.397 89.7437 145.335C86.3582 146.874 85.281 149.859 83.7268 156.492C81.9417 164.079 80.5798 172.942 81.28 175.351C81.7571 176.997 81.8494 178.775 85.5503 180.206C89.459 181.745 93.8294 182.745 106.702 186.438C109.123 187.287 111.592 187.994 114.096 188.554C120.667 189.577 123.283 188.385 124.591 185.846C124.968 185.076 125.03 184.307 125.361 183.537C125.595 183.145 125.776 182.723 125.899 182.283C125.955 182.062 125.931 181.827 125.831 181.622C125.731 181.416 125.562 181.253 125.353 181.16C125.148 181.11 124.934 181.11 124.73 181.16C123.683 181.36 122.645 181.56 121.606 181.706C120.409 181.855 119.201 181.896 117.997 181.829C117.936 181.844 117.873 181.844 117.813 181.829C117.636 181.752 117.682 181.683 117.813 181.622" fill="#FFBDA7"/>
<path d="M90.0898 144.951C87.0121 145.336 85.027 147.898 84.3806 150.914C83.3727 155.646 82.8956 158.362 81.7261 164.371C80.6566 169.819 80.2488 176.036 80.9567 177.736C81.6646 179.437 85.1193 180.56 87.3045 181.206C90.5669 182.176 100.277 184.592 100.277 184.592C100.208 182.283 101.508 178.436 103.501 177.051L91.2209 171.596L94.3601 157.685C94.3601 157.685 95.7297 147.567 90.0898 144.951Z" fill="#37474F"/>
<path d="M103.47 177.051C103.47 177.051 101.808 177.674 100.716 180.537C99.6233 183.399 100.246 184.592 100.246 184.592L106.117 186.261C106.117 186.261 105.786 181.645 108.341 179.267L103.47 177.051Z" fill="#263238"/>
<path d="M245.056 87.9616C245.399 87.99 245.744 87.9192 246.048 87.7576L287.115 65.8244C287.519 65.5849 287.813 65.1951 287.931 64.74C288.049 64.285 287.982 63.8017 287.745 63.3956C287.647 63.185 287.507 62.9959 287.335 62.8393C287.164 62.6828 286.962 62.5618 286.743 62.4833C286.525 62.4049 286.292 62.3706 286.06 62.3824C285.828 62.3942 285.6 62.4519 285.39 62.5521L244.092 84.4204C243.877 84.5383 243.689 84.6987 243.539 84.8919C243.388 85.0851 243.279 85.307 243.217 85.5439C243.156 85.7809 243.143 86.0279 243.18 86.2699C243.218 86.5118 243.304 86.7437 243.434 86.9511C243.601 87.2393 243.836 87.482 244.119 87.6582C244.402 87.8343 244.724 87.9385 245.056 87.9616V87.9616Z" fill="#734EEC"/>
<path d="M285.316 96.2306C285.713 96.2543 286.104 96.1342 286.419 95.8924C286.734 95.6506 286.952 95.3033 287.031 94.9143C287.133 94.4567 287.057 93.9776 286.82 93.5734C286.583 93.1692 286.201 92.87 285.752 92.7358L245.519 81.5374C245.286 81.4664 245.041 81.4444 244.799 81.4726C244.557 81.5008 244.323 81.5787 244.112 81.7014C243.902 81.8241 243.719 81.989 243.575 82.1857C243.431 82.3824 243.329 82.6067 243.276 82.8445C243.182 83.3444 243.281 83.8614 243.552 84.2914C243.824 84.7215 244.249 85.0325 244.741 85.1621L284.983 96.175L285.316 96.2306Z" fill="#734EEC"/>
<path d="M245.056 87.9616C245.369 87.9879 245.683 87.9305 245.967 87.7953C246.25 87.6601 246.492 87.452 246.669 87.1922C246.933 86.7685 247.022 86.2585 246.917 85.7703C246.811 85.2822 246.519 84.8545 246.103 84.578L201.607 53.3376C201.401 53.1592 201.16 53.0259 200.899 52.9465C200.639 52.8671 200.364 52.8432 200.094 52.8765C199.823 52.9098 199.563 52.9994 199.33 53.1396C199.096 53.2798 198.894 53.4674 198.738 53.6904C198.582 53.9134 198.474 54.1667 198.421 54.434C198.369 54.7013 198.373 54.9767 198.434 55.2422C198.494 55.5078 198.61 55.7577 198.773 55.9757C198.937 56.1937 199.144 56.375 199.382 56.508L244.082 87.6094C244.371 87.8097 244.706 87.9311 245.056 87.9616V87.9616Z" fill="#734EEC"/>
<path d="M200.411 90.3997C200.543 90.4136 200.677 90.4136 200.809 90.3997L245.464 85.227C245.704 85.2008 245.937 85.1248 246.147 85.0038C246.356 84.8827 246.539 84.7193 246.682 84.5239C246.825 84.3285 246.925 84.1055 246.977 83.869C247.03 83.6326 247.032 83.3878 246.984 83.1505C246.891 82.6511 246.616 82.2043 246.211 81.8974C245.807 81.5905 245.302 81.4456 244.796 81.4911L200.021 86.4877C199.763 86.5103 199.512 86.5869 199.285 86.7126C199.058 86.8383 198.86 87.0102 198.703 87.2173C198.547 87.4244 198.436 87.662 198.377 87.9148C198.318 88.1676 198.313 88.4299 198.362 88.6847C198.476 89.1518 198.736 89.5702 199.105 89.8788C199.473 90.1873 199.931 90.3699 200.411 90.3997V90.3997Z" fill="#734EEC"/>
<path d="M285.196 72.944L286.827 73.1016C287.196 73.1339 287.568 73.0887 287.919 72.969C288.27 72.8492 288.591 72.6575 288.864 72.4062C289.136 72.1548 289.353 71.8494 289.5 71.5094C289.648 71.1694 289.722 70.8024 289.72 70.4318L290.165 56.1836C290.193 55.3957 289.932 54.6247 289.432 54.0153C288.932 53.4059 288.227 53.0001 287.448 52.8741L285.808 52.6702C285.436 52.6281 285.059 52.6656 284.703 52.78C284.347 52.8944 284.019 53.0832 283.741 53.3338C283.463 53.5845 283.242 53.8913 283.091 54.2339C282.941 54.5766 282.865 54.9473 282.869 55.3214L282.48 69.6995C282.455 70.4793 282.719 71.2409 283.22 71.8392C283.72 72.4374 284.424 72.8307 285.196 72.944V72.944Z" fill="#734EEC"/>
<path d="M284.667 79.3778L283.648 69.709C283.621 69.5415 283.634 69.3702 283.684 69.2082C283.734 69.0462 283.821 68.8978 283.937 68.7743C284.053 68.6509 284.196 68.5557 284.355 68.4959C284.514 68.4362 284.684 68.4136 284.853 68.4298L287.448 68.6986C287.621 68.7222 287.786 68.7802 287.936 68.8691C288.085 68.958 288.215 69.076 288.318 69.216C288.421 69.3561 288.494 69.5154 288.535 69.6845C288.575 69.8536 288.581 70.029 288.552 70.2003L286.966 79.5818C286.915 79.8663 286.759 80.1213 286.529 80.2967C286.299 80.472 286.012 80.5551 285.724 80.5296C285.436 80.504 285.168 80.3717 284.972 80.1586C284.777 79.9455 284.668 79.667 284.667 79.3778V79.3778Z" fill="#734EEC"/>
<path d="M284.751 52.4383C284.736 52.9692 284.917 53.4871 285.258 53.8938C285.6 54.3004 286.079 54.5676 286.605 54.6446C286.849 54.6737 287.097 54.6502 287.332 54.5755C287.567 54.5008 287.783 54.3767 287.965 54.2116C288.148 54.0465 288.293 53.8442 288.391 53.6182C288.489 53.3923 288.537 53.148 288.533 52.9018C288.555 52.3762 288.383 51.8608 288.05 51.4538C287.717 51.0469 287.245 50.777 286.725 50.6955C286.478 50.6606 286.225 50.6799 285.986 50.7519C285.746 50.8238 285.525 50.9468 285.337 51.1124C285.149 51.278 285 51.4823 284.899 51.7111C284.797 51.94 284.747 52.188 284.751 52.4383Z" fill="#734EEC"/>
<path d="M286.725 49.4255L294.317 45.6155L310.874 50.8809L286.725 49.4255Z" fill="#734EEC"/>
<path d="M286.725 49.4258L279.022 53.2822L261.093 47.8684L286.725 49.4258Z" fill="#734EEC"/>
<path d="M199.307 64.6008L201.3 64.7955C201.723 64.8561 202.154 64.826 202.563 64.7072C202.973 64.5884 203.353 64.3835 203.678 64.1064C204.002 63.8292 204.264 63.486 204.446 63.0997C204.627 62.7134 204.724 62.2929 204.73 61.8661L204.777 46.1068C204.736 45.1831 204.368 44.3038 203.741 43.625C203.113 42.9462 202.265 42.5118 201.347 42.3988L199.344 42.1577C198.919 42.0821 198.483 42.1003 198.065 42.211C197.648 42.3217 197.259 42.5222 196.927 42.7985C196.595 43.0748 196.328 43.4203 196.143 43.8108C195.959 44.2013 195.862 44.6274 195.859 45.0593V61.0133C195.91 61.9247 196.286 62.7876 196.919 63.4457C197.551 64.1038 198.399 64.5136 199.307 64.6008V64.6008Z" fill="#734EEC"/>
<path d="M198.89 71.702L197.305 60.9578C197.276 60.7657 197.293 60.5695 197.355 60.3852C197.416 60.2009 197.52 60.0337 197.658 59.8973C197.797 59.7608 197.965 59.659 198.15 59.6C198.335 59.5411 198.532 59.5267 198.723 59.558L201.894 59.8825C202.302 59.9201 202.678 60.1179 202.94 60.4323C203.203 60.7468 203.33 61.1524 203.294 61.5604L201.69 71.9615C201.458 73.4633 199.122 73.2593 198.89 71.702Z" fill="#734EEC"/>
<path d="M198.047 41.8521C198.074 42.4695 198.32 43.057 198.742 43.509C199.163 43.9611 199.732 44.2479 200.346 44.3179C200.626 44.368 200.913 44.3562 201.188 44.2834C201.462 44.2107 201.718 44.0787 201.936 43.8967C202.154 43.7147 202.33 43.4871 202.451 43.23C202.572 42.9729 202.635 42.6924 202.636 42.4083C202.609 41.7912 202.365 41.2036 201.945 40.7503C201.526 40.2969 200.959 40.0073 200.346 39.9331C200.065 39.8814 199.776 39.8922 199.499 39.9648C199.223 40.0374 198.966 40.17 198.746 40.3532C198.527 40.5364 198.35 40.7656 198.229 41.0247C198.109 41.2837 198.046 41.5662 198.047 41.8521V41.8521Z" fill="#734EEC"/>
<path d="M200.355 38.5239L209.459 34.4172L229.732 40.4799L200.355 38.5239Z" fill="#734EEC"/>
<path d="M200.355 38.5237L191.085 42.7045L168.957 36.4286L200.355 38.5237Z" fill="#734EEC"/>
<path d="M284.38 104.194L285.761 104.277C286.078 104.291 286.394 104.241 286.691 104.13C286.987 104.019 287.259 103.849 287.489 103.632C287.719 103.414 287.903 103.152 288.03 102.861C288.156 102.571 288.224 102.258 288.227 101.941L288.598 89.964C288.623 89.3059 288.398 88.6628 287.968 88.164C287.538 87.6652 286.935 87.3478 286.28 87.2756L284.89 87.1644C284.571 87.1442 284.252 87.1893 283.951 87.2969C283.65 87.4045 283.375 87.5724 283.141 87.7902C282.908 88.0081 282.721 88.2713 282.593 88.5638C282.465 88.8563 282.398 89.1719 282.396 89.4912L282.044 101.542C282.018 102.2 282.246 102.842 282.681 103.336C283.116 103.83 283.724 104.137 284.38 104.194V104.194Z" fill="#734EEC"/>
<path d="M283.935 109.589L283.063 101.496C283.046 101.354 283.059 101.21 283.103 101.074C283.147 100.938 283.22 100.813 283.317 100.708C283.414 100.603 283.533 100.52 283.665 100.466C283.798 100.411 283.94 100.386 284.083 100.393L286.289 100.532C286.433 100.545 286.573 100.588 286.699 100.658C286.826 100.728 286.936 100.824 287.023 100.939C287.11 101.054 287.173 101.186 287.206 101.327C287.239 101.468 287.243 101.614 287.216 101.756L285.872 109.691C285.823 109.919 285.694 110.122 285.509 110.264C285.323 110.406 285.093 110.477 284.86 110.465C284.627 110.453 284.406 110.358 284.236 110.197C284.067 110.037 283.96 109.821 283.935 109.589V109.589Z" fill="#734EEC"/>
<path d="M283.99 87.0163C283.974 87.4541 284.125 87.8818 284.413 88.2124C284.7 88.543 285.103 88.7517 285.539 88.7961C285.749 88.8114 285.96 88.7832 286.158 88.7132C286.357 88.6433 286.539 88.533 286.693 88.3894C286.847 88.2459 286.97 88.072 287.053 87.8788C287.137 87.6856 287.18 87.4771 287.179 87.2665C287.196 86.8291 287.047 86.4016 286.761 86.0697C286.476 85.7378 286.076 85.5263 285.641 85.4774C285.429 85.4621 285.217 85.4906 285.017 85.561C284.818 85.6315 284.635 85.7424 284.48 85.8868C284.325 86.0313 284.201 86.2062 284.117 86.4005C284.033 86.5948 283.99 86.8045 283.99 87.0163V87.0163Z" fill="#734EEC"/>
<path d="M285.668 84.4113L290.943 80.8516L302.503 84.4762L285.668 84.4113Z" fill="#734EEC"/>
<path d="M285.669 84.4113L280.338 88.0082L268.129 84.3557L285.669 84.4113Z" fill="#734EEC"/>
<path d="M199.391 99.1972L201.087 99.2899C201.449 99.3271 201.815 99.2891 202.162 99.1783C202.508 99.0675 202.828 98.8863 203.101 98.6461C203.375 98.4059 203.595 98.1119 203.75 97.7824C203.904 97.4529 203.989 97.0951 203.998 96.7314V83.4843C203.966 82.7147 203.651 81.9839 203.114 81.4316C202.577 80.8792 201.856 80.5441 201.087 80.49L199.391 80.3602C199.026 80.3133 198.655 80.3438 198.302 80.4498C197.949 80.5558 197.623 80.7348 197.344 80.9753C197.065 81.2158 196.84 81.5123 196.683 81.8455C196.526 82.1788 196.441 82.5413 196.434 82.9095V96.2678C196.473 97.037 196.797 97.7639 197.344 98.3059C197.892 98.8479 198.622 99.1658 199.391 99.1972V99.1972Z" fill="#734EEC"/>
<path d="M199.048 105.167L197.713 96.2121C197.691 96.0487 197.706 95.8823 197.758 95.7256C197.81 95.569 197.897 95.4262 198.012 95.3082C198.128 95.1902 198.268 95.1001 198.424 95.0447C198.579 94.9893 198.745 94.97 198.909 94.9885L201.607 95.1553C201.775 95.162 201.941 95.2032 202.093 95.2765C202.245 95.3498 202.381 95.4535 202.491 95.5813C202.601 95.709 202.684 95.8581 202.735 96.0192C202.785 96.1804 202.802 96.3502 202.784 96.5181L201.421 105.334C201.338 105.596 201.17 105.822 200.943 105.976C200.715 106.131 200.443 106.204 200.169 106.185C199.895 106.166 199.636 106.055 199.432 105.87C199.229 105.686 199.094 105.438 199.048 105.167Z" fill="#734EEC"/>
<path d="M198.325 80.175C198.347 80.6887 198.557 81.1763 198.917 81.5442C199.276 81.9121 199.759 82.1342 200.272 82.168C200.512 82.1979 200.756 82.1771 200.988 82.1069C201.219 82.0368 201.434 81.9189 201.617 81.7608C201.801 81.6028 201.949 81.408 202.052 81.1892C202.156 80.9703 202.213 80.7322 202.218 80.4901C202.197 79.9779 201.987 79.4915 201.63 79.1238C201.273 78.7562 200.792 78.5331 200.281 78.4971C200.04 78.4658 199.795 78.4856 199.562 78.5551C199.329 78.6246 199.114 78.7422 198.929 78.9004C198.745 79.0587 198.596 79.2539 198.492 79.4734C198.388 79.693 198.331 79.932 198.325 80.175V80.175Z" fill="#734EEC"/>
<path d="M200.281 77.3195L206.575 73.426L220.731 77.5327L200.281 77.3195Z" fill="#734EEC"/>
<path d="M200.281 77.3196L193.912 81.2502L178.885 77.0786L200.281 77.3196Z" fill="#734EEC"/>
<path d="M233.218 88.8238L256.523 90.5017C258.359 90.6533 260.198 90.2546 261.806 89.3564C263.414 88.4582 264.718 87.1013 265.552 85.4587L267.851 80.8793C268.25 80.0157 268.437 79.0697 268.397 78.1196C268.357 77.1694 268.091 76.2423 267.622 75.4152C267.153 74.588 266.493 73.8845 265.698 73.3629C264.903 72.8413 263.995 72.5166 263.049 72.4156L226.896 68.9671C225.908 68.8487 224.907 69.0003 223.999 69.4058C223.091 69.8114 222.31 70.4556 221.739 71.2699C221.169 72.0843 220.829 73.0382 220.758 74.03C220.686 75.0219 220.885 76.0146 221.333 76.9024L223.716 82.1122C224.561 83.9738 225.887 85.5768 227.557 86.7563C229.227 87.9359 231.181 88.6495 233.218 88.8238Z" fill="#734EEC"/>
<path opacity="0.2" d="M226.859 74.557L262.957 77.7644C263.401 77.8013 263.84 77.8915 264.264 78.0333C264.793 78.2295 265.276 78.5338 265.682 78.9269C266.087 79.3199 266.407 79.7931 266.619 80.3162C266.832 80.8394 266.934 81.4011 266.917 81.9657C266.901 82.5302 266.768 83.0852 266.526 83.5954L265.599 85.4494C264.763 87.1014 263.452 88.4655 261.835 89.366C260.217 90.2664 258.367 90.662 256.523 90.5016L233.209 88.7959C231.171 88.6299 229.213 87.924 227.539 86.751C225.864 85.5779 224.531 83.98 223.679 82.1214L222.705 80.0078C222.42 79.4853 222.265 78.9018 222.253 78.3067C222.241 77.7115 222.372 77.1221 222.636 76.5884C222.899 76.0547 223.288 75.5923 223.768 75.2403C224.248 74.8883 224.806 74.6571 225.394 74.5662C225.88 74.5041 226.372 74.501 226.859 74.557Z" fill="black"/>
<path d="M233.765 85.2177C233.776 88.241 234.927 91.1487 236.99 93.3591C239.053 95.5695 241.874 96.9195 244.889 97.1391C246.306 97.2563 247.731 97.0806 249.077 96.6229C250.423 96.1651 251.66 95.4353 252.711 94.4787C253.762 93.5221 254.606 92.3592 255.188 91.0626C255.771 89.766 256.08 88.3633 256.097 86.942C256.226 80.8793 251.332 79.4609 245.195 78.9418C239.058 78.4227 233.848 78.9882 233.765 85.2177Z" fill="#734EEC"/>
<path d="M250.423 89.2039C250.437 89.9384 250.297 90.6677 250.013 91.3451C249.728 92.0224 249.305 92.6329 248.771 93.1373C248.237 93.6417 247.604 94.029 246.911 94.2744C246.219 94.5197 245.483 94.6177 244.75 94.5621C243.211 94.4263 241.778 93.7228 240.729 92.5884C239.68 91.454 239.091 89.97 239.077 88.4252C239.064 87.6918 239.205 86.9639 239.49 86.2881C239.775 85.6123 240.199 85.0036 240.733 84.5009C241.267 83.9981 241.9 83.6126 242.592 83.3689C243.284 83.1251 244.019 83.0287 244.75 83.0856C246.287 83.219 247.718 83.9193 248.767 85.0502C249.816 86.1811 250.406 87.6617 250.423 89.2039V89.2039Z" fill="white"/>
<path d="M244.889 92.4112C245.321 92.4497 245.757 92.397 246.167 92.2564C246.577 92.1159 246.954 91.8907 247.271 91.5954C247.593 91.2868 247.847 90.915 248.018 90.5034C248.189 90.0918 248.272 89.6492 248.263 89.2037C248.246 88.2065 247.864 87.2502 247.189 86.5157C246.514 85.7812 245.594 85.3193 244.602 85.2175C244.171 85.1797 243.737 85.2328 243.328 85.3733C242.92 85.5139 242.545 85.7387 242.229 86.0333C241.903 86.3396 241.646 86.7108 241.474 87.1228C241.301 87.5348 241.217 87.9784 241.227 88.425C241.247 89.4216 241.63 90.3768 242.304 91.1109C242.978 91.8449 243.898 92.3074 244.889 92.4112Z" fill="#734EEC"/>
</g>
<defs>
<clipPath id="clip0">
<rect width="340" height="340" fill="white"/>
</clipPath>
</defs>
</svg>
