<svg xmlns="http://www.w3.org/2000/svg" width="64" height="64" viewBox="0 0 64 64"><g fill="none" fill-rule="evenodd"><path d="M0 0h64v64H0z"/><path fill="#595959" fill-rule="nonzero" d="M47.874 55.328c-4.0751842 3.8097314-9.7396106 5.808-16.104 5.808-.1137219-2.2146315 1.4612827-4.1584116 3.6513717-4.5063132C39.0637419 56.0510608 42.2466193 54.5831736 44.97 52.226c3.5016277-3.2892191 5.3783034-8.1606375 5.28-14.454V25.43c-.0025851-10.6096553-8.3073343-19.206-18.546-19.206-10.1767475 0-18.4814968 8.5963447-18.48 19.206v9.966c-.0014968 1.1390201-.9467363 2.0845947-2.112 2.112C9.9452395 37.4805947 9 36.5350201 9 35.396V25.43C9 12.5191667 19.1623475 2 31.704 2c12.6035707 0 22.7659182 10.5191667 22.77 23.43v12.276c.110961 7.44384-2.2086608 13.4594668-6.6 17.622z"/><path stroke="#595959" stroke-width="4.224" d="M11.112 29.456h7.92c2.3328508 0 4.224 1.8911492 4.224 4.224v4.29c0 2.3328508-1.8911492 4.224-4.224 4.224h-3.696c-2.3328508 0-4.224-1.8911492-4.224-4.224v-8.514h0zm33.264 0h7.986v8.514c0 2.3328508-1.8911492 4.224-4.224 4.224h-3.762c-2.3328508 0-4.224-1.8911492-4.224-4.224v-4.29c0-2.3328508 1.8911492-4.224 4.224-4.224z"/></g></svg>